<svg width="49" height="48" viewBox="0 0 49 48" fill="none" xmlns="http://www.w3.org/2000/svg">
<path d="M9.83594 8H38.3359C39.8901 8 41.3847 8.57882 42.5312 9.61719L42.7549 9.83105C43.927 11.0032 44.5859 12.5924 44.5859 14.25V33.75C44.5859 35.3042 44.0071 36.7988 42.9688 37.9453L42.7549 38.1689C41.5828 39.341 39.9935 40 38.3359 40H9.83594C8.28175 40 6.78718 39.4212 5.64062 38.3828L5.41699 38.1689C4.24489 36.9968 3.58594 35.4076 3.58594 33.75V14.25C3.58594 12.6958 4.16476 11.2012 5.20312 10.0547L5.41699 9.83105C6.51592 8.73213 7.98148 8.08437 9.52637 8.00781L9.83594 8ZM5.58594 33.75C5.58594 34.8068 5.97957 35.8229 6.68555 36.6025L6.83105 36.7549C7.62808 37.5519 8.70877 38 9.83594 38H38.3359C39.3927 38 40.4088 37.6064 41.1885 36.9004L41.3408 36.7549C42.1379 35.9579 42.5859 34.8772 42.5859 33.75V19H5.58594V33.75ZM31.5859 29H36.0859C36.3512 29 36.6054 29.1054 36.793 29.293C36.9805 29.4805 37.0859 29.7348 37.0859 30C37.0859 30.2652 36.9805 30.5195 36.793 30.707C36.6054 30.8946 36.3512 31 36.0859 31H31.5859C31.3207 31 31.0664 30.8946 30.8789 30.707C30.6914 30.5195 30.5859 30.2652 30.5859 30C30.5859 29.7348 30.6914 29.4805 30.8789 29.293C31.0664 29.1054 31.3207 29 31.5859 29ZM9.83594 10C8.70877 10 7.62808 10.4481 6.83105 11.2451C6.03403 12.0421 5.58594 13.1228 5.58594 14.25V17H42.5859V14.25C42.5859 13.1228 42.1379 12.0421 41.3408 11.2451C40.5438 10.4481 39.4631 10 38.3359 10H9.83594Z" fill="#4CAF4F" stroke="#4CAF4F"/>
</svg>
