<svg width="49" height="48" viewBox="0 0 49 48" fill="none" xmlns="http://www.w3.org/2000/svg">
<mask id="path-1-inside-1_8_7420" fill="white">
<path d="M28.3976 23.6446C28.1568 23.6446 27.9332 23.5784 27.7346 23.4719V23.4748C27.7346 23.8536 27.5874 24.2094 27.3202 24.4758C27.053 24.743 26.6975 24.8903 26.3191 24.8903C26.0748 24.8903 25.8484 24.8224 25.6477 24.7131C25.6274 25.0597 25.4889 25.3836 25.2417 25.631C24.9746 25.8982 24.6191 26.0454 24.2404 26.0454C23.4881 26.0454 22.8772 25.4541 22.8332 24.7129C22.6004 24.8387 22.3373 24.9046 22.0658 24.8872C21.3258 24.8387 20.7462 24.1993 20.7462 23.4312V17.0645L20.0213 18.3205C19.7452 18.8009 19.2283 19.0991 18.6718 19.0991C18.4006 19.0991 18.1327 19.028 17.8955 18.892C17.6 18.7208 17.3887 18.4458 17.3008 18.1169C17.2125 17.7878 17.2582 17.4436 17.429 17.1486C17.4292 17.1486 19.801 13.0414 19.9457 12.7891C19.9629 12.7512 20.0119 12.6411 20.0536 12.5474C20.0934 12.4578 20.1276 12.366 20.1603 12.2736C20.8756 10.2543 22.6466 8.99998 24.7825 8.99998C27.5562 8.99998 29.8127 11.4469 29.8127 14.4546L29.813 22.2289C29.813 22.6073 29.666 22.9628 29.399 23.2302C29.1319 23.4974 28.7764 23.6447 28.3975 23.6447L28.3976 23.6446ZM24.7825 9.75212C22.9472 9.75212 21.4844 10.7888 20.8693 12.5251C20.8299 12.6354 20.7889 12.7457 20.7411 12.8531C20.6023 13.1643 20.6023 13.1643 20.5632 13.2091L20.558 13.2046C20.3644 13.57 19.789 14.5663 18.0802 17.525C18.01 17.6463 17.9914 17.7872 18.0272 17.922C18.0635 18.0567 18.1505 18.1703 18.2708 18.2398C18.6445 18.4544 19.1562 18.3159 19.3692 17.9448L20.7967 15.4734C20.882 15.3261 21.0544 15.2538 21.2198 15.2986C21.3843 15.3426 21.4985 15.4918 21.4985 15.6619V23.4314C21.4985 23.798 21.7751 24.1144 22.1151 24.1368C22.3111 24.1471 22.494 24.0814 22.6313 23.9443C22.7562 23.8194 22.825 23.6531 22.825 23.4752V18.3938C22.825 18.186 22.9934 18.0176 23.2012 18.0176C23.409 18.0176 23.5775 18.1858 23.5775 18.3938L23.5772 24.6302C23.5772 24.9958 23.8748 25.2934 24.2404 25.2934C24.4181 25.2934 24.5849 25.2246 24.71 25.0997C24.8349 24.9746 24.9037 24.8078 24.9037 24.6302V18.3938C24.9037 18.186 25.0719 18.0176 25.2799 18.0176C25.4877 18.0176 25.6562 18.1858 25.6562 18.3938L25.6559 23.4168V23.4752C25.6559 23.8406 25.9535 24.1381 26.3194 24.1381C26.4968 24.1381 26.6631 24.0691 26.7889 23.9438C26.9138 23.8191 26.9826 23.6528 26.9826 23.4749V18.3936C26.9826 18.1858 27.1508 18.0173 27.3588 18.0173C27.5666 18.0173 27.7351 18.1855 27.7351 18.3936L27.7346 22.2291C27.7346 22.595 28.0322 22.8925 28.3976 22.8925C28.5754 22.8925 28.7418 22.8235 28.8666 22.6989C28.992 22.5736 29.0605 22.4067 29.0605 22.2291L29.0608 14.4548C29.0608 11.862 27.1416 9.7522 24.7825 9.7522L24.7825 9.75212Z"/>
</mask>
<path d="M28.3976 23.6446C28.1568 23.6446 27.9332 23.5784 27.7346 23.4719V23.4748C27.7346 23.8536 27.5874 24.2094 27.3202 24.4758C27.053 24.743 26.6975 24.8903 26.3191 24.8903C26.0748 24.8903 25.8484 24.8224 25.6477 24.7131C25.6274 25.0597 25.4889 25.3836 25.2417 25.631C24.9746 25.8982 24.6191 26.0454 24.2404 26.0454C23.4881 26.0454 22.8772 25.4541 22.8332 24.7129C22.6004 24.8387 22.3373 24.9046 22.0658 24.8872C21.3258 24.8387 20.7462 24.1993 20.7462 23.4312V17.0645L20.0213 18.3205C19.7452 18.8009 19.2283 19.0991 18.6718 19.0991C18.4006 19.0991 18.1327 19.028 17.8955 18.892C17.6 18.7208 17.3887 18.4458 17.3008 18.1169C17.2125 17.7878 17.2582 17.4436 17.429 17.1486C17.4292 17.1486 19.801 13.0414 19.9457 12.7891C19.9629 12.7512 20.0119 12.6411 20.0536 12.5474C20.0934 12.4578 20.1276 12.366 20.1603 12.2736C20.8756 10.2543 22.6466 8.99998 24.7825 8.99998C27.5562 8.99998 29.8127 11.4469 29.8127 14.4546L29.813 22.2289C29.813 22.6073 29.666 22.9628 29.399 23.2302C29.1319 23.4974 28.7764 23.6447 28.3975 23.6447L28.3976 23.6446ZM24.7825 9.75212C22.9472 9.75212 21.4844 10.7888 20.8693 12.5251C20.8299 12.6354 20.7889 12.7457 20.7411 12.8531C20.6023 13.1643 20.6023 13.1643 20.5632 13.2091L20.558 13.2046C20.3644 13.57 19.789 14.5663 18.0802 17.525C18.01 17.6463 17.9914 17.7872 18.0272 17.922C18.0635 18.0567 18.1505 18.1703 18.2708 18.2398C18.6445 18.4544 19.1562 18.3159 19.3692 17.9448L20.7967 15.4734C20.882 15.3261 21.0544 15.2538 21.2198 15.2986C21.3843 15.3426 21.4985 15.4918 21.4985 15.6619V23.4314C21.4985 23.798 21.7751 24.1144 22.1151 24.1368C22.3111 24.1471 22.494 24.0814 22.6313 23.9443C22.7562 23.8194 22.825 23.6531 22.825 23.4752V18.3938C22.825 18.186 22.9934 18.0176 23.2012 18.0176C23.409 18.0176 23.5775 18.1858 23.5775 18.3938L23.5772 24.6302C23.5772 24.9958 23.8748 25.2934 24.2404 25.2934C24.4181 25.2934 24.5849 25.2246 24.71 25.0997C24.8349 24.9746 24.9037 24.8078 24.9037 24.6302V18.3938C24.9037 18.186 25.0719 18.0176 25.2799 18.0176C25.4877 18.0176 25.6562 18.1858 25.6562 18.3938L25.6559 23.4168V23.4752C25.6559 23.8406 25.9535 24.1381 26.3194 24.1381C26.4968 24.1381 26.6631 24.0691 26.7889 23.9438C26.9138 23.8191 26.9826 23.6528 26.9826 23.4749V18.3936C26.9826 18.1858 27.1508 18.0173 27.3588 18.0173C27.5666 18.0173 27.7351 18.1855 27.7351 18.3936L27.7346 22.2291C27.7346 22.595 28.0322 22.8925 28.3976 22.8925C28.5754 22.8925 28.7418 22.8235 28.8666 22.6989C28.992 22.5736 29.0605 22.4067 29.0605 22.2291L29.0608 14.4548C29.0608 11.862 27.1416 9.7522 24.7825 9.7522L24.7825 9.75212Z" fill="#4CAF4F"/>
<path d="M28.3976 23.6446V22.3113H33.1083L29.0964 24.7802L28.3976 23.6446ZM27.7346 23.4719H26.4013V21.2441L28.3647 22.2969L27.7346 23.4719ZM27.3202 24.4758L26.3774 23.533L26.3786 23.5318L27.3202 24.4758ZM25.6477 24.7131L24.3166 24.6353L24.4393 22.5368L26.2853 23.5421L25.6477 24.7131ZM25.2417 25.631L26.185 26.5733L26.1845 26.5738L25.2417 25.631ZM22.8332 24.7129L22.1992 23.5399L24.0401 22.5449L24.1642 24.6338L22.8332 24.7129ZM22.0658 24.8872L21.9803 26.2178L21.9786 26.2177L22.0658 24.8872ZM20.7462 17.0645L19.5915 16.398L22.0796 12.0875V17.0645H20.7462ZM20.0213 18.3205L18.8653 17.656L18.8665 17.6539L20.0213 18.3205ZM17.8955 18.892L17.2326 20.0489L17.2267 20.0455L17.8955 18.892ZM17.3008 18.1169L18.5886 17.7712L18.589 17.7727L17.3008 18.1169ZM17.429 17.1486L16.2751 16.4805L16.6603 15.8152H17.429V17.1486ZM19.9457 12.7891L21.16 13.3397L21.1338 13.3974L21.1023 13.4524L19.9457 12.7891ZM20.0536 12.5474L18.8353 12.0056L18.8353 12.0056L20.0536 12.5474ZM20.1603 12.2736L21.4171 12.7188L21.417 12.7191L20.1603 12.2736ZM29.8127 14.4546L28.4794 14.4546V14.4546H29.8127ZM29.813 22.2289L31.1463 22.2289V22.2289H29.813ZM29.399 23.2302L30.3427 24.1722L30.3418 24.1731L29.399 23.2302ZM28.3975 23.6447V24.978H23.6868L27.6987 22.5091L28.3975 23.6447ZM24.7825 9.75212V8.41879H26.5502L26.0646 10.1184L24.7825 9.75212ZM20.8693 12.5251L22.1261 12.9704L22.125 12.9732L20.8693 12.5251ZM20.7411 12.8531L21.9592 13.3954L21.9589 13.3961L20.7411 12.8531ZM20.5632 13.2091L21.5673 14.0864L20.695 15.0847L19.6917 14.2182L20.5632 13.2091ZM20.558 13.2046L19.3799 12.5802L20.1633 11.102L21.4295 12.1955L20.558 13.2046ZM18.0802 17.525L19.2348 18.1918L19.2343 18.1928L18.0802 17.525ZM18.0272 17.922L16.7397 18.2686L16.7386 18.2644L18.0272 17.922ZM18.2708 18.2398L17.6067 19.396L17.6042 19.3945L18.2708 18.2398ZM19.3692 17.9448L18.2128 17.2811L18.2146 17.278L19.3692 17.9448ZM20.7967 15.4734L19.6421 14.8065L19.6429 14.8051L20.7967 15.4734ZM21.2198 15.2986L20.8748 16.5865L20.8715 16.5856L21.2198 15.2986ZM22.1151 24.1368L22.0447 25.4682L22.0361 25.4678L22.0276 25.4672L22.1151 24.1368ZM22.6313 23.9443L23.5741 24.8871L23.5733 24.8879L22.6313 23.9443ZM23.5775 18.3938H24.9108V18.3939L23.5775 18.3938ZM23.5772 24.6302H22.2439V24.6301L23.5772 24.6302ZM24.71 25.0997L25.6537 26.0417L25.6519 26.0435L24.71 25.0997ZM25.6562 18.3938H26.9895V18.3939L25.6562 18.3938ZM25.6559 23.4168H24.3226V23.4167L25.6559 23.4168ZM26.7889 23.9438L27.7308 24.8875L27.73 24.8883L26.7889 23.9438ZM27.7351 18.3936H29.0684V18.3937L27.7351 18.3936ZM27.7346 22.2291H26.4013V22.2289L27.7346 22.2291ZM28.8666 22.6989L29.8094 23.6417L29.8086 23.6426L28.8666 22.6989ZM29.0605 22.2291H27.7272V22.2291L29.0605 22.2291ZM29.0608 14.4548H30.3941V14.4548L29.0608 14.4548ZM24.7825 9.7522V11.0855H23.0149L23.5005 9.38591L24.7825 9.7522ZM28.3976 23.6446V24.978C27.9066 24.978 27.4683 24.8421 27.1046 24.647L27.7346 23.4719L28.3647 22.2969C28.3819 22.3061 28.3929 22.3096 28.3972 22.3108C28.4009 22.3118 28.4004 22.3113 28.3976 22.3113V23.6446ZM27.7346 23.4719H29.068V23.4748H27.7346H26.4013V23.4719H27.7346ZM27.7346 23.4748H29.068C29.068 24.2061 28.781 24.9021 28.2618 25.4199L27.3202 24.4758L26.3786 23.5318C26.3882 23.5223 26.3929 23.5141 26.3957 23.5075C26.3984 23.5008 26.4013 23.4905 26.4013 23.4748H27.7346ZM27.3202 24.4758L28.263 25.4187C27.7456 25.9361 27.0509 26.2236 26.3191 26.2236V24.8903V23.5569C26.3344 23.5569 26.3445 23.5541 26.3513 23.5513C26.3582 23.5485 26.367 23.5434 26.3774 23.533L27.3202 24.4758ZM26.3191 24.8903V26.2236C25.8218 26.2236 25.378 26.0844 25.01 25.884L25.6477 24.7131L26.2853 23.5421C26.3027 23.5516 26.3137 23.5552 26.3181 23.5564C26.3218 23.5574 26.3215 23.5569 26.3191 23.5569V24.8903ZM25.6477 24.7131L26.9787 24.7909C26.9404 25.4472 26.6741 26.0837 26.185 26.5733L25.2417 25.631L24.2984 24.6887C24.3034 24.6837 24.3062 24.6794 24.3087 24.6738C24.3113 24.6678 24.3154 24.6556 24.3166 24.6353L25.6477 24.7131ZM25.2417 25.631L26.1845 26.5738C25.667 27.0913 24.9723 27.3787 24.2404 27.3787V26.0454V24.7121C24.2559 24.7121 24.2661 24.7093 24.2729 24.7064C24.2797 24.7036 24.2885 24.6986 24.2989 24.6882L25.2417 25.631ZM24.2404 26.0454V27.3787C22.7684 27.3787 21.5872 26.2234 21.5022 24.7919L22.8332 24.7129L24.1642 24.6338C24.1655 24.6565 24.1748 24.6764 24.1912 24.692C24.1992 24.6997 24.2073 24.7046 24.2144 24.7075C24.2206 24.71 24.2285 24.7121 24.2404 24.7121V26.0454ZM22.8332 24.7129L23.4672 25.8858C23.0365 26.1186 22.5258 26.2528 21.9804 26.2178L22.0658 24.8872L22.1513 23.5566C22.1513 23.5566 22.1542 23.5569 22.1612 23.5552C22.1687 23.5535 22.1818 23.5493 22.1992 23.5399L22.8332 24.7129ZM22.0658 24.8872L21.9786 26.2177C20.4981 26.1206 19.4129 24.8616 19.4129 23.4312H20.7462H22.0796C22.0796 23.4763 22.0959 23.511 22.1165 23.5336C22.1365 23.5557 22.15 23.5565 22.1531 23.5567L22.0658 24.8872ZM20.7462 23.4312H19.4129V17.0645H20.7462H22.0796V23.4312H20.7462ZM20.7462 17.0645L21.901 17.7311L21.176 18.987L20.0213 18.3205L18.8665 17.6539L19.5915 16.398L20.7462 17.0645ZM20.0213 18.3205L21.1773 18.9849C20.662 19.8813 19.703 20.4325 18.6718 20.4325V19.0991V17.7658C18.7535 17.7658 18.8283 17.7205 18.8653 17.656L20.0213 18.3205ZM18.6718 19.0991V20.4325C18.1676 20.4325 17.6712 20.3002 17.2326 20.0489L17.8955 18.892L18.5584 17.7352C18.5942 17.7557 18.6336 17.7658 18.6718 17.7658V19.0991ZM17.8955 18.892L17.2267 20.0455C16.6281 19.6985 16.1924 19.1337 16.0127 18.4611L17.3008 18.1169L18.589 17.7727C18.5878 17.7682 18.5844 17.7601 18.578 17.7518C18.5716 17.7435 18.5657 17.7394 18.5642 17.7385L17.8955 18.892ZM17.3008 18.1169L16.0131 18.4626C15.8327 17.7904 15.9271 17.0815 16.2751 16.4805L17.429 17.1486L18.5829 17.8167C18.5848 17.8134 18.5881 17.8058 18.5895 17.795C18.5909 17.7842 18.5897 17.7756 18.5886 17.7712L17.3008 18.1169ZM17.429 17.1486V15.8152C16.7749 15.9867 16.2854 16.463 16.2817 16.4692C16.2805 16.4712 16.2787 16.4743 16.2781 16.4753C16.2778 16.4759 16.2772 16.4769 16.277 16.4772C16.2769 16.4774 16.2767 16.4778 16.2766 16.4779C16.2764 16.4782 16.2765 16.4781 16.277 16.4773C16.2779 16.4757 16.2794 16.4731 16.2816 16.4693C16.286 16.4617 16.2926 16.4503 16.3013 16.4353C16.3186 16.4052 16.3441 16.3611 16.3767 16.3047C16.4418 16.1919 16.535 16.0306 16.6474 15.8361C16.872 15.4471 17.173 14.9259 17.4785 14.3967C18.0905 13.3367 18.718 12.2497 18.7891 12.1257L19.9457 12.7891L21.1023 13.4524C21.0287 13.5808 20.3979 14.6735 19.7879 15.7301C19.4823 16.2593 19.1813 16.7806 18.9566 17.1697C18.8443 17.3642 18.751 17.5257 18.6858 17.6385C18.6532 17.6949 18.6276 17.7393 18.6101 17.7695C18.6014 17.7846 18.5946 17.7963 18.59 17.8043C18.5877 17.8083 18.5859 17.8115 18.5845 17.8139C18.5838 17.815 18.583 17.8164 18.5823 17.8177C18.582 17.8182 18.5811 17.8197 18.5801 17.8214C18.5794 17.8226 18.5776 17.8257 18.5763 17.8279C18.5726 17.8341 18.083 18.3105 17.429 18.4819V17.1486ZM19.9457 12.7891L18.7313 12.2385C18.746 12.2061 18.7925 12.1017 18.8353 12.0056L20.0536 12.5474L21.2719 13.0892C21.2312 13.1805 21.1797 13.2962 21.16 13.3397L19.9457 12.7891ZM20.0536 12.5474L18.8353 12.0056C18.8538 11.9639 18.8743 11.9106 18.9036 11.8281L20.1603 12.2736L21.417 12.7191C21.3808 12.8213 21.333 12.9518 21.2719 13.0892L20.0536 12.5474ZM20.1603 12.2736L18.9035 11.8284C19.8065 9.27893 22.0796 7.66665 24.7825 7.66665V8.99998V10.3333C23.2136 10.3333 21.9446 11.2297 21.4171 12.7188L20.1603 12.2736ZM24.7825 8.99998V7.66665C28.3922 7.66665 31.1461 10.8142 31.1461 14.4546H29.8127H28.4794C28.4794 12.0795 26.7202 10.3333 24.7825 10.3333V8.99998ZM29.8127 14.4546L31.1461 14.4545L31.1463 22.2289L29.813 22.2289L28.4797 22.229L28.4794 14.4546L29.8127 14.4546ZM29.813 22.2289H31.1463C31.1463 22.9601 30.8594 23.6545 30.3427 24.1722L29.399 23.2302L28.4554 22.2883C28.4659 22.2778 28.471 22.2688 28.4739 22.2618C28.4768 22.2548 28.4797 22.2445 28.4797 22.2289H29.813ZM29.399 23.2302L30.3418 24.1731C29.8243 24.6906 29.1295 24.978 28.3975 24.978V23.6447V22.3113C28.4132 22.3113 28.4234 22.3085 28.4302 22.3057C28.437 22.3029 28.4458 22.2978 28.4562 22.2874L29.399 23.2302ZM28.3975 23.6447L27.6987 22.5091L27.6988 22.5091L28.3976 23.6446L29.0964 24.7802L29.0963 24.7802L28.3975 23.6447ZM24.7825 9.75212V11.0855C23.5148 11.0855 22.5536 11.7636 22.126 12.9704L20.8693 12.5251L19.6125 12.0799C20.4152 9.81396 22.3796 8.41879 24.7825 8.41879V9.75212ZM20.8693 12.5251L22.125 12.9732C22.0829 13.0912 22.0283 13.2402 21.9592 13.3954L20.7411 12.8531L19.523 12.3108C19.5496 12.2512 19.5769 12.1796 19.6135 12.077L20.8693 12.5251ZM20.7411 12.8531L21.9589 13.3961C21.8978 13.533 21.8466 13.6487 21.8075 13.727C21.7832 13.7756 21.7439 13.8505 21.6868 13.9335C21.629 14.0176 21.5719 14.081 21.5673 14.0864L20.5632 13.2091L19.5591 12.3318C19.5623 12.3282 19.5613 12.3294 19.5597 12.3312C19.5576 12.3336 19.5525 12.3396 19.5457 12.3479C19.5386 12.3565 19.5297 12.3676 19.5197 12.3808C19.5097 12.3941 19.4994 12.4082 19.4891 12.4231C19.4683 12.4535 19.4522 12.4802 19.4407 12.5003C19.4301 12.5191 19.4235 12.5321 19.4221 12.535C19.4205 12.5381 19.4215 12.5363 19.426 12.5266C19.4304 12.5172 19.4366 12.5036 19.4455 12.4839C19.4544 12.4644 19.465 12.4408 19.478 12.4117C19.491 12.3826 19.5059 12.3492 19.5233 12.3101L20.7411 12.8531ZM20.5632 13.2091L19.6917 14.2182L19.6865 14.2137L20.558 13.2046L21.4295 12.1955L21.4347 12.2L20.5632 13.2091ZM20.558 13.2046L21.7361 13.829C21.5275 14.2227 20.9317 15.2538 19.2348 18.1918L18.0802 17.525L16.9257 16.8582C18.6464 13.8789 19.2013 12.9173 19.3799 12.5802L20.558 13.2046ZM18.0802 17.525L19.2343 18.1928C19.341 18.0084 19.3707 17.786 19.3158 17.5795L18.0272 17.922L16.7386 18.2644C16.6121 17.7885 16.6791 17.2842 16.9262 16.8572L18.0802 17.525ZM18.0272 17.922L19.3147 17.5754C19.2599 17.3716 19.125 17.1933 18.9375 17.0851L18.2708 18.2398L17.6042 19.3945C17.1759 19.1473 16.8672 18.7419 16.7397 18.2686L18.0272 17.922ZM18.2708 18.2398L18.935 17.0836C18.7832 16.9965 18.6356 16.997 18.5336 17.0245C18.4321 17.0518 18.3019 17.1259 18.2128 17.2811L19.3692 17.9448L20.5256 18.6085C19.9445 19.621 18.6165 19.976 17.6067 19.396L18.2708 18.2398ZM19.3692 17.9448L18.2146 17.278L19.6421 14.8065L20.7967 15.4734L21.9513 16.1403L20.5238 18.6117L19.3692 17.9448ZM20.7967 15.4734L19.6429 14.8051C20.0281 14.1402 20.8141 13.8075 21.5682 14.0116L21.2198 15.2986L20.8715 16.5856C21.2948 16.7002 21.7359 16.5121 21.9505 16.1417L20.7967 15.4734ZM21.2198 15.2986L21.5649 14.0107C22.3129 14.2111 22.8319 14.8889 22.8319 15.6619H21.4985H20.1652C20.1652 16.0946 20.4557 16.4742 20.8748 16.5865L21.2198 15.2986ZM21.4985 15.6619H22.8319V23.4314H21.4985H20.1652V15.6619H21.4985ZM21.4985 23.4314H22.8319C22.8319 23.2795 22.7756 23.1413 22.6832 23.0356C22.5909 22.9301 22.4282 22.8211 22.2027 22.8063L22.1151 24.1368L22.0276 25.4672C20.9051 25.3933 20.1652 24.4156 20.1652 23.4314H21.4985ZM22.1151 24.1368L22.1855 22.8053C22.028 22.797 21.8356 22.8547 21.6893 23.0006L22.6313 23.9443L23.5733 24.8879C23.1523 25.3081 22.5943 25.4973 22.0447 25.4682L22.1151 24.1368ZM22.6313 23.9443L21.6885 23.0015C21.562 23.128 21.4916 23.3014 21.4916 23.4752H22.825H24.1583C24.1583 24.0048 23.9504 24.5108 23.5741 24.8871L22.6313 23.9443ZM22.825 23.4752H21.4916V18.3938H22.825H24.1583V23.4752H22.825ZM22.825 18.3938H21.4916C21.4916 17.4496 22.2571 16.6842 23.2012 16.6842V18.0176V19.3509C23.7298 19.3509 24.1583 18.9224 24.1583 18.3938H22.825ZM23.2012 18.0176V16.6842C24.1449 16.6842 24.9108 17.4489 24.9108 18.3938H23.5775H22.2441C22.2441 18.9227 22.6732 19.3509 23.2012 19.3509V18.0176ZM23.5775 18.3938L24.9108 18.3939L24.9106 24.6302L23.5772 24.6302L22.2439 24.6301L22.2441 18.3938L23.5775 18.3938ZM23.5772 24.6302H24.9106C24.9106 24.2595 24.6112 23.9601 24.2404 23.9601V25.2934V26.6267C23.1384 26.6267 22.2439 25.7322 22.2439 24.6302H23.5772ZM24.2404 25.2934V23.9601C24.0669 23.9601 23.8944 24.03 23.7681 24.156L24.71 25.0997L25.6519 26.0435C25.2754 26.4192 24.7693 26.6267 24.2404 26.6267V25.2934ZM24.71 25.0997L23.7663 24.1578C23.6402 24.2841 23.5703 24.4567 23.5703 24.6302H24.9037H26.237C26.237 25.159 26.0295 25.6652 25.6537 26.0417L24.71 25.0997ZM24.9037 24.6302H23.5703V18.3938H24.9037H26.237V24.6302H24.9037ZM24.9037 18.3938H23.5703C23.5703 17.4502 24.3349 16.6842 25.2799 16.6842V18.0176V19.3509C25.8088 19.3509 26.237 18.9218 26.237 18.3938H24.9037ZM25.2799 18.0176V16.6842C26.2235 16.6842 26.9895 17.4489 26.9895 18.3938H25.6562H24.3228C24.3228 18.9227 24.7519 19.3509 25.2799 19.3509V18.0176ZM25.6562 18.3938L26.9895 18.3939L26.9893 23.4168L25.6559 23.4168L24.3226 23.4167L24.3228 18.3938L25.6562 18.3938ZM25.6559 23.4168H26.9893V23.4752H25.6559H24.3226V23.4168H25.6559ZM25.6559 23.4752H26.9893C26.9893 23.1036 26.6892 22.8048 26.3194 22.8048V24.1381V25.4715C25.2178 25.4715 24.3226 24.5776 24.3226 23.4752H25.6559ZM26.3194 24.1381V22.8048C26.1422 22.8048 25.9707 22.8769 25.8479 22.9992L26.7889 23.9438L27.73 24.8883C27.3555 25.2614 26.8513 25.4715 26.3194 25.4715V24.1381ZM26.7889 23.9438L25.847 23.0001C25.7195 23.1274 25.6492 23.3013 25.6492 23.4749H26.9826H28.3159C28.3159 24.0043 28.1081 24.5109 27.7308 24.8875L26.7889 23.9438ZM26.9826 23.4749H25.6492V18.3936H26.9826H28.3159V23.4749H26.9826ZM26.9826 18.3936H25.6492C25.6492 17.4499 26.4139 16.684 27.3588 16.684V18.0173V19.3506C27.8877 19.3506 28.3159 18.9216 28.3159 18.3936H26.9826ZM27.3588 18.0173V16.684C28.3025 16.684 29.0684 17.4486 29.0684 18.3936H27.7351H26.4017C26.4017 18.9224 26.8308 19.3506 27.3588 19.3506V18.0173ZM27.7351 18.3936L29.0684 18.3937L29.0679 22.2293L27.7346 22.2291L26.4013 22.2289L26.4017 18.3934L27.7351 18.3936ZM27.7346 22.2291H29.0679C29.0679 21.8592 28.7692 21.5592 28.3976 21.5592V22.8925V24.2259C27.2952 24.2259 26.4013 23.3307 26.4013 22.2291H27.7346ZM28.3976 22.8925V21.5592C28.2227 21.5592 28.0501 21.63 27.9247 21.7552L28.8666 22.6989L29.8086 23.6426C29.4334 24.017 28.9282 24.2259 28.3976 24.2259V22.8925ZM28.8666 22.6989L27.9238 21.7561C27.7969 21.883 27.7272 22.0563 27.7272 22.2291H29.0605H30.3939C30.3939 22.7572 30.1871 23.2641 29.8094 23.6417L28.8666 22.6989ZM29.0605 22.2291L27.7272 22.2291L27.7274 14.4547L29.0608 14.4548L30.3941 14.4548L30.3939 22.2291L29.0605 22.2291ZM29.0608 14.4548H27.7274C27.7274 12.4769 26.2893 11.0855 24.7825 11.0855V9.7522V8.41887C27.9939 8.41887 30.3941 11.2471 30.3941 14.4548H29.0608ZM24.7825 9.7522L23.5005 9.38591L23.5005 9.38583L24.7825 9.75212L26.0646 10.1184L26.0646 10.1185L24.7825 9.7522Z" fill="#4CAF4F" mask="url(#path-1-inside-1_8_7420)"/>
<path d="M12.0493 26.2139L11.9741 26.1738C11.9566 26.2054 11.9067 26.2939 11.8335 26.4258C11.8595 26.4388 11.8853 26.451 11.9116 26.4609C11.9565 26.3801 12.0027 26.2979 12.0493 26.2139Z" fill="#4CAF4F" stroke="#4CAF4F" stroke-width="1.33333"/>
<path d="M26.9141 28.5728L26.916 28.5737C26.9184 28.5754 26.9204 28.5779 26.9229 28.5796C26.9197 28.5774 26.917 28.5749 26.9141 28.5728Z" fill="#4CAF4F" stroke="#4CAF4F" stroke-width="1.33333"/>
</svg>
