<svg width="49" height="48" viewBox="0 0 49 48" fill="none" xmlns="http://www.w3.org/2000/svg">
<g clip-path="url(#clip0_8_7417)">
<path d="M16.5859 8.73584C18.9447 8.73584 21.2471 9.46162 23.1797 10.814C25.1119 12.1662 26.5815 14.0798 27.3896 16.2954C28.1978 18.5114 28.3056 20.9227 27.6973 23.2017C27.0889 25.4805 25.7942 27.5172 23.9893 29.0356L23.3818 29.5474L24.1045 29.8745C27.0778 31.22 29.6368 33.3371 31.5146 36.0063L31.5215 36.0161L31.5293 36.0259C31.6751 36.2127 31.7813 36.4276 31.8418 36.6567C31.8871 36.8286 31.9065 37.0063 31.8984 37.1831L31.8809 37.3599C31.8548 37.5358 31.8018 37.7063 31.7246 37.8657L31.6396 38.021C31.5153 38.2228 31.3511 38.3972 31.1572 38.5337C31.0119 38.636 30.8523 38.716 30.6836 38.77L30.5117 38.8149C30.2798 38.864 30.0401 38.8661 29.8076 38.8198C29.5752 38.7735 29.3545 38.6795 29.1592 38.5454C28.9639 38.4113 28.7976 38.2388 28.6709 38.0386L28.665 38.0288L28.6582 38.019L28.3975 37.6597C27.1586 36.0034 25.585 34.6264 23.7793 33.6177L23.3887 33.4067C21.2875 32.3146 18.954 31.7446 16.5859 31.7446C14.2179 31.7446 11.8844 32.3146 9.7832 33.4067C7.81343 34.4306 6.10182 35.885 4.77441 37.6597L4.51465 38.019L4.51367 38.02C4.39373 38.1923 4.24349 38.3415 4.07129 38.4595L3.8916 38.5669C3.70525 38.6639 3.50337 38.7259 3.2959 38.7505L3.08789 38.7622H3.08398C2.77008 38.7632 2.46277 38.6782 2.19531 38.5171L2.08301 38.4429L2.08105 38.4419L1.94434 38.3345C1.64057 38.0714 1.43459 37.7104 1.36523 37.311C1.28602 36.8545 1.39193 36.3855 1.6582 36.0063L1.65723 36.0054C3.53502 33.3364 6.09429 31.2199 9.06738 29.8745L9.79004 29.5474L9.18262 29.0356C7.37778 27.5172 6.08292 25.4805 5.47461 23.2017C4.90434 21.0651 4.96322 18.8125 5.63867 16.7134L5.78223 16.2954C6.53986 14.2181 7.87906 12.4063 9.63574 11.0737L9.99316 10.814C11.9258 9.46164 14.2272 8.73586 16.5859 8.73584ZM28.624 8.69971L28.752 9.18311L28.7607 9.18115C29.6446 8.92955 30.5552 8.78688 31.4727 8.75635L31.8662 8.74951H31.8691C34.0816 8.74316 36.2457 9.37638 38.1025 10.5679L38.4697 10.814C40.2847 12.0798 41.6928 13.8411 42.5283 15.8833L42.6875 16.2954C43.446 18.374 43.5867 20.6243 43.0977 22.7759L42.9912 23.2046C42.3799 25.4843 41.0814 27.5207 39.2715 29.0356L38.6611 29.5464L39.3857 29.8745C42.1731 31.1359 44.5963 33.0754 46.4355 35.5122L46.7959 36.0063L46.7979 36.0093C46.9313 36.1959 47.0261 36.4076 47.0771 36.6313C47.1154 36.7991 47.1287 36.9711 47.1162 37.1421L47.0957 37.313C47.0564 37.5389 46.972 37.7545 46.8486 37.9478C46.7559 38.0929 46.6424 38.2232 46.5117 38.3345L46.376 38.439L46.3701 38.4429C46.0781 38.6516 45.7281 38.7624 45.3691 38.7612C45.159 38.7599 44.9515 38.7218 44.7559 38.6479L44.5635 38.563C44.3767 38.4658 44.2099 38.3355 44.0693 38.1802L43.9375 38.0171C42.5741 36.0832 40.7669 34.5041 38.667 33.4136C36.698 32.3911 34.5254 31.8262 32.3115 31.7573L31.8682 31.7495H31.8672C31.4611 31.7495 31.0692 31.6092 30.7578 31.354L30.6299 31.2378C30.3017 30.9096 30.1172 30.4636 30.1172 29.9995C30.1173 29.5936 30.2587 29.2024 30.5137 28.8911L30.6299 28.7622C30.958 28.4341 31.4032 28.2495 31.8672 28.2495C33.8563 28.2495 35.7688 27.5089 37.2363 26.1802L37.5244 25.9067C39.0246 24.4065 39.8672 22.3712 39.8672 20.2495C39.8671 18.2605 39.1266 16.3478 37.7979 14.8804L37.5244 14.5933C36.0241 13.093 33.9889 12.2495 31.8672 12.2495C31.2273 12.2484 30.5901 12.3262 29.9697 12.48L29.7051 12.5503L29.6992 12.5522C29.5326 12.6019 29.3598 12.6258 29.1865 12.6245L29.0127 12.6147C28.8395 12.5962 28.6703 12.5522 28.5107 12.4839L28.3555 12.4077C28.203 12.3238 28.0641 12.2177 27.9434 12.0933L27.8281 11.9634C27.6838 11.7816 27.5775 11.5725 27.5146 11.3491C27.4675 11.1815 27.4452 11.008 27.4492 10.8345L27.4619 10.6616C27.4832 10.4888 27.5299 10.3201 27.6006 10.1616L27.6797 10.0073C27.7948 9.80579 27.9488 9.62923 28.1328 9.48779C28.3167 9.34643 28.5267 9.2425 28.751 9.18311L28.624 8.69971ZM18.1465 12.4038C16.5947 12.0952 14.9861 12.2534 13.5244 12.8589C12.1541 13.4265 10.9704 14.3632 10.1035 15.562L9.93457 15.8052C9.05559 17.1207 8.58602 18.6674 8.58594 20.2495C8.58594 22.3711 9.42858 24.4065 10.9287 25.9067C12.429 27.407 14.4642 28.2495 16.5859 28.2495C18.0692 28.2495 19.5216 27.8378 20.7812 27.062L21.0303 26.9019C22.3459 26.0228 23.372 24.7728 23.9775 23.311C24.545 21.9407 24.719 20.4415 24.4844 18.981L24.4326 18.689C24.1432 17.2341 23.455 15.8903 22.4482 14.8062L22.2432 14.5933C21.1944 13.5445 19.8758 12.8095 18.4365 12.4673L18.1465 12.4038Z" fill="#4CAF4F" stroke="#4CAF4F"/>
</g>
<defs>
<clipPath id="clip0_8_7417">
<rect width="48" height="48" fill="white" transform="translate(0.0859375)"/>
</clipPath>
</defs>
</svg>
