<svg width="49" height="48" viewBox="0 0 49 48" fill="none" xmlns="http://www.w3.org/2000/svg">
<path d="M40.0859 42V38C40.0859 35.8783 39.2431 33.8434 37.7428 32.3431C36.2425 30.8429 34.2077 30 32.0859 30H30.0859C29.5555 30 29.0468 29.7893 28.6717 29.4142C28.2967 29.0391 28.0859 28.5304 28.0859 28V18C28.0859 16.9391 27.6645 15.9217 26.9144 15.1716C26.1642 14.4214 25.1468 14 24.0859 14C23.0251 14 22.0077 14.4214 21.2575 15.1716C20.5074 15.9217 20.0859 16.9391 20.0859 18V36L15.2859 29.6C14.9133 29.1032 14.4302 28.7 13.8748 28.4223C13.3194 28.1446 12.7069 28 12.0859 28H11.2179C9.48794 28 8.08594 29.402 8.08594 31.132C8.08594 31.7 8.23994 32.258 8.53194 32.744L14.0859 42M24.0859 8V6V8ZM36.0859 20H38.0859H36.0859ZM10.0859 20H12.0859H10.0859ZM14.7719 10.686L13.3579 9.272L14.7719 10.686ZM33.3999 10.686L34.8139 9.272L33.3999 10.686Z" fill="#4CAF4F"/>
<path d="M40.0859 42V38C40.0859 35.8783 39.2431 33.8434 37.7428 32.3431C36.2425 30.8429 34.2077 30 32.0859 30H30.0859C29.5555 30 29.0468 29.7893 28.6717 29.4142C28.2967 29.0391 28.0859 28.5304 28.0859 28V18C28.0859 16.9391 27.6645 15.9217 26.9144 15.1716C26.1642 14.4214 25.1468 14 24.0859 14V14C23.0251 14 22.0077 14.4214 21.2575 15.1716C20.5074 15.9217 20.0859 16.9391 20.0859 18V36L15.2859 29.6C14.9133 29.1032 14.4302 28.7 13.8748 28.4223C13.3194 28.1446 12.7069 28 12.0859 28H11.2179C9.48794 28 8.08594 29.402 8.08594 31.132C8.08594 31.7 8.23994 32.258 8.53194 32.744L14.0859 42M24.0859 8V6M36.0859 20H38.0859M10.0859 20H12.0859M14.7719 10.686L13.3579 9.272M33.3999 10.686L34.8139 9.272" stroke="#4CAF4F" stroke-width="2" stroke-linecap="round" stroke-linejoin="round"/>
</svg>
