<svg width="48" height="48" viewBox="0 0 48 48" fill="none" xmlns="http://www.w3.org/2000/svg">
<rect width="48" height="48" rx="8" fill="#E8F5E9"/>
<g clip-path="url(#clip0_8_7370)">
<path fill-rule="evenodd" clip-rule="evenodd" d="M10.3535 0.194336C15.8763 0.194336 20.3535 4.67149 20.3535 10.1943V0.194336H30.3535C35.8763 0.194336 40.3535 4.67149 40.3535 10.1943C40.3535 15.7171 35.8763 20.1943 30.3535 20.1943C35.8763 20.1943 40.3535 24.6715 40.3535 30.1943C40.3535 32.9366 39.2496 35.4211 37.462 37.2277L37.4246 37.2654L37.3914 37.2984C35.5844 39.0886 33.0981 40.1943 30.3535 40.1943C27.6276 40.1943 25.1564 39.1036 23.3525 37.3348C23.3291 37.3118 23.3057 37.2886 23.2824 37.2654C23.2605 37.2435 23.2387 37.2215 23.217 37.1994C21.4459 35.3952 20.3535 32.9223 20.3535 30.1943C20.3535 35.7171 15.8763 40.1943 10.3535 40.1943C4.83067 40.1943 0.353516 35.7171 0.353516 30.1943V20.1943H10.3535C4.83067 20.1943 0.353516 15.7171 0.353516 10.1943C0.353516 4.67149 4.83067 0.194336 10.3535 0.194336ZM18.3535 10.1943C18.3535 14.6126 14.7718 18.1943 10.3535 18.1943V2.19434C14.7718 2.19434 18.3535 5.77606 18.3535 10.1943ZM38.3535 30.1943C38.3535 25.776 34.7718 22.1943 30.3535 22.1943C25.9352 22.1943 22.3535 25.776 22.3535 30.1943H38.3535ZM2.35352 22.1943V30.1943C2.35352 34.6126 5.93524 38.1943 10.3535 38.1943C14.7718 38.1943 18.3535 34.6126 18.3535 30.1943V22.1943H2.35352ZM22.3535 18.1943V2.19434H30.3535C34.7718 2.19434 38.3535 5.77606 38.3535 10.1943C38.3535 14.6126 34.7718 18.1943 30.3535 18.1943H22.3535Z" fill="#5417D7"/>
</g>
<defs>
<clipPath id="clip0_8_7370">
<rect width="40" height="40" fill="white" transform="translate(0.353516 0.194336)"/>
</clipPath>
</defs>
</svg>
