<svg width="55" height="48" viewBox="0 0 55 48" fill="none" xmlns="http://www.w3.org/2000/svg">
<rect width="48" height="48" rx="8" fill="#F5F7FA"/>
<g clip-path="url(#clip0_8_7376)">
<path d="M54.9957 19.5163C55.0015 19.4746 55.0015 19.4325 54.9957 19.3908C55.0011 19.3568 55.0011 19.3222 54.9957 19.2881L54.5883 16.3555C54.5295 16.0046 54.3723 15.6767 54.1344 15.4083L54.0645 15.3285L53.9365 15.2029L46.8829 9.24635L47.0808 9.44036C46.9189 9.25047 46.7157 9.09859 46.4861 8.9959C46.2565 8.89321 46.0062 8.84232 45.7539 8.84698H43.6122C43.2639 8.84021 42.9236 8.94877 42.6461 9.15508C42.3547 8.95001 42.0038 8.84201 41.6451 8.84698H39.5034C39.2225 8.84251 38.9454 8.91085 38.7001 9.04511C38.4549 9.17936 38.2501 9.37476 38.1067 9.61151C37.8855 9.94967 37.8023 10.3571 37.8738 10.7526L38.1416 12.6012C37.9642 12.5026 37.7635 12.4515 37.5596 12.4529H27.1887C26.8166 12.4552 26.4531 12.5621 26.1411 12.761C25.8395 12.9461 25.5973 13.2111 25.4428 13.5255L24.6396 12.8523C24.3235 12.5655 23.9063 12.4101 23.4757 12.4186H7.20353C6.83012 12.4253 6.46501 12.5276 6.14436 12.7153C5.70569 12.967 5.38421 13.3763 5.24809 13.8564L0.0801167 30.8019C-0.0164452 31.0811 -0.0259442 31.3822 0.0528362 31.6668C0.131617 31.9513 0.295109 32.2064 0.522426 32.3995C0.581658 32.4487 0.643851 32.4944 0.708664 32.5363C0.708664 32.5363 0.603891 32.4679 0.545692 32.4109L7.59931 38.3788C7.89769 38.6482 8.28781 38.7987 8.69336 38.801H25.0936C25.4681 38.7915 25.8335 38.6852 26.1528 38.4929C26.3334 38.3962 26.495 38.2687 26.63 38.1163L26.6882 38.0365L26.7813 37.9224L26.8512 37.7968L27.6194 38.4473C27.9135 38.7059 28.2951 38.8482 28.6902 38.8467H45.1253C45.4994 38.8345 45.8641 38.7284 46.1845 38.5386C46.361 38.4359 46.5217 38.3091 46.6618 38.162L46.7199 38.0821L46.813 37.9681C46.8625 37.8958 46.9055 37.8195 46.941 37.7398C46.9791 37.6706 47.0103 37.598 47.0342 37.523L51.7482 22.0496V21.9127C51.754 21.8596 51.754 21.806 51.7482 21.7529V21.6502C51.7539 21.6162 51.7539 21.5815 51.7482 21.5475C51.7535 21.4753 51.7535 21.4029 51.7482 21.3307H53.2614C53.393 21.3425 53.5255 21.3425 53.6571 21.3307H53.7619C53.8471 21.3058 53.9291 21.2713 54.0063 21.228H54.1227L54.3322 21.0682L54.4253 20.9998L54.5883 20.7943V20.7259L54.7047 20.5319C54.6982 20.4942 54.6982 20.4556 54.7047 20.4178C54.6985 20.3993 54.6985 20.3793 54.7047 20.3608C54.7294 20.2939 54.7489 20.2252 54.7629 20.1553C54.7575 20.1328 54.7575 20.1094 54.7629 20.0869C54.7572 20.0529 54.7572 20.0182 54.7629 19.9842C54.7629 19.9842 54.9957 19.5391 54.9957 19.5163Z" fill="black"/>
<path d="M23.9527 13.7196C24.0145 13.7744 24.0576 13.8464 24.0764 13.926C24.0952 14.0055 24.0885 14.0888 24.0575 14.1646L18.9012 31.0986C18.8362 31.2835 18.7034 31.4381 18.5287 31.5323C18.3865 31.6255 18.222 31.6806 18.0514 31.692H1.66292C1.52296 31.6854 1.39036 31.6286 1.29045 31.5323C1.23101 31.4784 1.18929 31.4083 1.17063 31.3311C1.15197 31.2539 1.15722 31.173 1.18569 31.0986L6.35367 14.1646C6.41322 13.9774 6.54188 13.8187 6.71449 13.7196C6.859 13.6331 7.02275 13.5821 7.19172 13.5712H23.5802C23.7191 13.5725 23.8522 13.6256 23.9527 13.7196ZM15.3976 27.6867L18.4821 17.5765H9.84557L6.77268 27.6867H15.3976ZM39.5963 13.8907C39.6522 13.9544 39.7221 14.005 39.8007 14.0386C39.8793 14.0721 39.9646 14.0879 40.0503 14.0847H42.1803C42.2614 14.0855 42.3413 14.066 42.4127 14.0281C42.4839 13.9901 42.5441 13.935 42.5877 13.8679C42.6255 13.8155 42.6522 13.7562 42.6662 13.6934C42.6802 13.6307 42.6812 13.5659 42.6691 13.5028L42.2501 10.4903C42.2102 10.3508 42.1386 10.2221 42.0407 10.1137C41.9847 10.05 41.9148 9.99946 41.8362 9.96587C41.7576 9.93229 41.6723 9.91651 41.5867 9.9197H39.4566C39.3755 9.91892 39.2955 9.93842 39.2243 9.97636C39.153 10.0143 39.0927 10.0694 39.0493 10.1365C38.9678 10.2963 38.9329 10.399 38.9678 10.4903L39.3984 13.5028C39.4205 13.6495 39.4899 13.7854 39.5963 13.8907ZM46.3589 10.4674C46.319 10.328 46.2473 10.1993 46.1494 10.0909C46.0958 10.0274 46.028 9.97688 45.9513 9.94324C45.8746 9.9096 45.791 9.89373 45.7071 9.89687H43.5654C43.4856 9.89465 43.4067 9.91362 43.3371 9.95179C43.2674 9.98996 43.2096 10.0459 43.1697 10.1137C43.0922 10.2149 43.0587 10.3421 43.0766 10.4674L43.5072 13.4799C43.5342 13.6251 43.6028 13.7597 43.7051 13.8679C43.762 13.9304 43.8321 13.9801 43.9104 14.0135C43.9888 14.047 44.0735 14.0635 44.159 14.0619H46.3007C46.3803 14.0629 46.4587 14.0435 46.5281 14.0054C46.5976 13.9673 46.6557 13.9121 46.6965 13.8451C46.737 13.7941 46.7652 13.7347 46.7794 13.6716C46.7935 13.6084 46.793 13.5429 46.7779 13.4799L46.3589 10.4674ZM37.7223 15.0319L37.5128 13.5484H27.1885C27.0264 13.5572 26.8696 13.6084 26.7345 13.6968C26.6488 13.7426 26.5742 13.8061 26.5159 13.8829C26.4577 13.9598 26.4171 14.0481 26.3971 14.1418L25.5357 16.9717C25.5013 17.0424 25.4896 17.1218 25.502 17.1992C25.5145 17.2766 25.5506 17.3484 25.6055 17.4054C25.7037 17.4958 25.8318 17.5485 25.9664 17.5537H38.5139L35.4294 27.6639H22.9168C22.7554 27.6675 22.5983 27.7149 22.4629 27.8008C22.2983 27.9033 22.178 28.0618 22.1253 28.2459L21.2523 31.0758C21.2238 31.1484 21.2164 31.2273 21.2307 31.3038C21.2452 31.3804 21.2808 31.4515 21.3338 31.5094C21.4289 31.6059 21.558 31.6631 21.6946 31.6692H38.1297C38.2997 31.6548 38.4635 31.6 38.6069 31.5094C38.7788 31.4148 38.9077 31.2599 38.9678 31.0758L43.6934 15.6024H38.3741C38.2897 15.604 38.2059 15.5887 38.1279 15.5573C38.0498 15.5259 37.9791 15.4791 37.9202 15.4198C37.824 15.3163 37.7559 15.1908 37.7223 15.0547V15.0319Z" fill="white"/>
</g>
<defs>
<clipPath id="clip0_8_7376">
<rect width="55" height="30" fill="white" transform="translate(0 8.84668)"/>
</clipPath>
</defs>
</svg>
