<svg width="48" height="48" viewBox="0 0 48 48" fill="none" xmlns="http://www.w3.org/2000/svg">
<rect width="48" height="48" rx="8" fill="#F5F7FA"/>
<g clip-path="url(#clip0_8_7380)">
<path d="M43.9968 13.4115C43.9968 13.4453 43.9968 13.4876 43.988 13.5129C43.9439 13.8426 43.9439 14.1723 43.9703 14.5105C43.988 14.595 44.0056 14.6795 44.0761 14.7472C44.1905 14.874 44.3667 14.8486 44.4372 14.6964C44.4724 14.6204 44.4724 14.5443 44.4547 14.4682C44.3667 14.147 44.3491 13.8088 44.3403 13.4791C44.3403 13.4622 44.3403 13.4369 44.3403 13.4115C44.4372 13.4031 44.5252 13.3946 44.6045 13.3946C44.6662 13.3861 44.719 13.3777 44.7631 13.3523C44.8951 13.2847 44.8951 13.141 44.7542 13.0734C44.7014 13.048 44.6309 13.0396 44.5693 13.0396C44.3491 13.048 44.1289 13.048 43.9087 13.048C43.8294 13.048 43.7501 13.0565 43.6708 13.0649C43.6268 13.0734 43.574 13.0734 43.5388 13.0987C43.4771 13.1241 43.4419 13.1664 43.4419 13.2255C43.4507 13.2847 43.4771 13.3185 43.5388 13.3439C43.574 13.3692 43.618 13.3777 43.6621 13.3777C43.7677 13.3861 43.8823 13.4031 43.9968 13.4115ZM46.4189 13.8004C46.4189 13.8088 46.4277 13.8173 46.4277 13.8173C46.4629 14.0455 46.4982 14.2653 46.5246 14.4851C46.5334 14.5612 46.5422 14.6288 46.5951 14.688C46.7095 14.8317 46.8857 14.8148 46.9649 14.6626C47.0002 14.5865 47.009 14.5105 46.9914 14.4259C46.9386 14.1723 46.9121 13.9187 46.8593 13.6736C46.824 13.5214 46.78 13.3777 46.736 13.2424C46.7095 13.1579 46.6479 13.0987 46.5422 13.0903C46.4365 13.0734 46.3572 13.1241 46.3132 13.2002C46.2603 13.2678 46.2163 13.3354 46.1811 13.4115C46.1194 13.5468 46.0666 13.682 45.9961 13.8088C45.9873 13.8426 45.9785 13.868 45.9609 13.8934C45.9521 13.8764 45.9433 13.868 45.9433 13.868C45.8288 13.6567 45.7231 13.4453 45.6086 13.2424C45.5909 13.2255 45.5821 13.2086 45.5733 13.1917C45.5205 13.1156 45.4589 13.0734 45.362 13.0734C45.2739 13.0818 45.2034 13.1325 45.1594 13.2086C45.1417 13.2424 45.1418 13.2678 45.133 13.3016C45.0977 13.5721 45.0537 13.8426 45.0185 14.1131C45.0008 14.2653 44.992 14.4175 44.992 14.5696C44.9832 14.6034 44.992 14.6457 45.0096 14.6795C45.0273 14.7471 45.0801 14.7894 45.1505 14.7979C45.2386 14.8063 45.3003 14.781 45.3267 14.7133C45.3531 14.6626 45.362 14.6204 45.3708 14.5781C45.406 14.4259 45.4324 14.2822 45.4589 14.1385C45.4765 14.054 45.4852 13.9863 45.5117 13.8934C45.5293 13.9272 45.5469 13.9525 45.5645 13.9779C45.6438 14.0793 45.7231 14.1808 45.82 14.2653C45.9168 14.3329 45.9961 14.3245 46.0754 14.2484C46.093 14.2315 46.1018 14.223 46.1194 14.2061C46.1987 14.0878 46.2956 13.9694 46.3748 13.8511C46.3925 13.8342 46.4013 13.8173 46.4189 13.8004Z" fill="#3A3B7B"/>
<path d="M26.1242 13.5774C26.063 13.738 26.0513 13.8538 26.0795 13.95C26.1108 14.0808 26.1918 14.1236 26.3018 14.0903C27.3363 13.8448 29.6049 14.5417 30.4448 14.736C30.6428 14.7767 30.804 14.5313 30.6688 14.3113C30.4716 14.0982 28.204 13.1859 27.3388 13.1362C26.9997 13.1178 26.3934 13.0343 26.1242 13.5774Z" fill="#3A3B7B"/>
<path d="M34.9906 10.6241C35.1008 10.6852 35.1625 10.7435 35.1929 10.8085C35.2382 10.8939 35.2143 10.953 35.1382 10.9832C34.4543 11.3035 33.5443 12.6826 33.177 13.1582C33.088 13.2676 32.8826 13.2041 32.8516 13.0241C32.8579 12.8207 33.6646 11.3241 34.1148 10.9164C34.2917 10.7573 34.584 10.445 34.9906 10.6241Z" fill="#3A3B7B"/>
<path d="M29.5445 9.94541C29.6769 9.84959 29.8146 9.81602 29.8849 9.87828C30.9167 10.7252 31.4638 12.0663 31.8026 13.2941C31.8154 13.3227 31.8162 13.3638 31.806 13.4066C31.8017 13.4432 31.7739 13.4818 31.7296 13.5118C31.6824 13.5448 31.6417 13.5548 31.6225 13.5264C31.1703 12.936 28.5875 10.6392 29.5445 9.94541Z" fill="#3A3B7B"/>
<path d="M7.69524 24.6285C7.94253 24.4518 8.21137 24.3047 8.49586 24.1905C8.7935 24.1089 9.11075 24.1224 9.39966 24.2291C9.68851 24.3359 9.93338 24.53 10.0971 24.7822C10.2435 25.0337 10.3008 25.3241 10.2604 25.6096C10.2199 25.8951 10.084 26.1602 9.87289 26.3651C9.70926 26.5312 9.52348 26.6759 9.3205 26.7954C8.41582 27.3564 7.50308 27.8866 6.59039 28.4475C6.40363 28.5879 6.20551 28.7139 5.99793 28.8241C5.68217 28.9752 5.32132 29.0157 4.97776 28.9385C4.6342 28.8614 4.32955 28.6713 4.11648 28.4014C3.95719 28.2103 3.82277 28.0013 3.71616 27.779C2.8515 26.0347 1.95481 24.2981 1.12217 22.523C0.737866 21.7546 0.425627 20.8709 0.121393 20.018C-0.010233 19.7702 -0.0359366 19.4829 0.0497553 19.2171C0.135447 18.9514 0.325774 18.7282 0.580249 18.5951C0.834727 18.462 1.13327 18.4294 1.4124 18.5043C1.69152 18.5791 1.92921 18.7556 2.0749 18.996C2.52271 19.5672 2.91911 20.1739 3.25981 20.8095C4.12448 22.3463 4.94912 23.8831 5.78176 25.3738C5.83024 25.4562 5.8837 25.5357 5.94188 25.612C6.56859 25.3591 7.15803 25.0285 7.69524 24.6285Z" fill="#3A3B7B"/>
<path d="M16.6352 24.0924C14.6577 26.313 11.3432 25.7521 9.67789 22.8936C8.49295 20.865 8.28481 17.5147 10.8628 15.4016C11.4133 14.9592 12.0716 14.6578 12.7763 14.5256C13.6403 14.4067 14.5213 14.553 15.2935 14.9435C16.0656 15.3341 16.6894 15.9489 17.0756 16.7002C18.4847 19.1591 18.2845 22.2942 16.6352 24.0924ZM15.8346 18.9132C15.6245 18.309 15.2031 17.7931 14.6417 17.4532C14.324 17.2359 13.938 17.1302 13.5487 17.154C13.1594 17.1778 12.7905 17.3296 12.5041 17.5838C11.3592 18.5597 11.119 20.8727 11.9516 22.2481C12.0578 22.4724 12.2136 22.6717 12.4084 22.8322C12.6032 22.9926 12.8321 23.1102 13.0792 23.1768C13.3263 23.2434 13.5855 23.2574 13.8389 23.2178C14.0922 23.1781 14.3334 23.0859 14.5457 22.9474C15.1663 22.4856 15.6216 21.8497 15.8483 21.1281C16.075 20.4065 16.0618 19.635 15.8107 18.9209L15.8346 18.9132Z" fill="#3A3B7B"/>
<path d="M24.7055 19.8815C24.5031 19.9233 24.294 19.9258 24.0904 19.8888C23.887 19.8518 23.6932 19.7762 23.5207 19.6663C23.3697 19.5834 23.2397 19.4695 23.14 19.3326C23.0405 19.1957 22.9737 19.0394 22.9446 18.8747C22.9155 18.7101 22.9248 18.5414 22.9718 18.3807C23.0188 18.2199 23.1024 18.0712 23.2164 17.9451C23.4152 17.6917 23.6973 17.5103 24.0171 17.4303C24.8518 17.1977 25.7112 17.056 26.579 17.0076C26.7697 16.9864 26.9629 17.0018 27.1472 17.0532C27.3316 17.1046 27.5033 17.1907 27.6525 17.3067C27.8016 17.4227 27.9252 17.5661 28.0158 17.7285C28.1064 17.8909 28.1623 18.069 28.1802 18.2525C28.4304 19.1534 28.4578 20.0981 28.2603 21.0111C27.5398 23.9618 25.0578 24.9761 22.2717 24.0309C21.4896 23.7782 20.8039 23.3074 20.3022 22.6785C19.633 21.9212 19.1586 21.0237 18.9171 20.0582C18.7214 19.1985 18.7428 18.3063 18.9797 17.4562C19.2164 16.606 19.6616 15.8225 20.2781 15.1711C20.8632 14.4631 21.6226 13.906 22.4879 13.5498C23.0346 13.2605 23.6744 13.1783 24.2813 13.3192C24.4189 13.3558 24.5439 13.4271 24.6432 13.5256C24.7425 13.6241 24.8125 13.7464 24.846 13.8797C24.8795 14.0129 24.8752 14.1524 24.8336 14.2835C24.792 14.4147 24.7147 14.5328 24.6095 14.6255C24.4096 14.7992 24.1924 14.9537 23.961 15.0866C23.2492 15.5216 22.6298 16.0822 22.1356 16.7387C21.8116 17.1635 21.5885 17.6512 21.482 18.1676C21.3755 18.684 21.3881 19.2166 21.5191 19.7278C21.7007 20.4249 22.1036 21.0506 22.672 21.5182C24.4333 23.0551 26.7231 21.572 26.3228 19.4742C25.7384 19.6126 25.226 19.7586 24.7055 19.8815Z" fill="#3A3B7B"/>
<path d="M35.4661 24.2151C32.8641 25.7519 29.9019 24.2151 29.2533 20.9878C28.781 18.6825 29.6777 15.4552 32.8161 14.2257C33.4839 13.9698 34.2081 13.8799 34.9217 13.9645C35.7791 14.1151 36.5656 14.5202 37.1703 15.1226C37.775 15.7251 38.1675 16.4945 38.2923 17.3224C38.8207 20.0656 37.6198 22.9933 35.4661 24.2151ZM36.3709 19.0437C36.3701 18.4053 36.1348 17.7876 35.7064 17.2994C35.4773 16.9974 35.1463 16.781 34.7696 16.6871C34.3929 16.5932 33.994 16.6276 33.6407 16.7846C32.2317 17.3685 31.2389 19.4893 31.5992 21.0493C31.6267 21.2941 31.7096 21.5301 31.842 21.741C31.9745 21.9518 32.1534 22.1324 32.3661 22.27C32.5789 22.4075 32.8204 22.4989 33.0737 22.5376C33.3271 22.5762 33.5862 22.5613 33.8329 22.4939C34.5777 22.2441 35.2226 21.7774 35.6776 21.1589C36.1326 20.5403 36.375 19.8008 36.3709 19.0437Z" fill="#3A3B7B"/>
<path d="M40.9237 24.8609C40.8844 25.1421 40.7304 25.3969 40.4954 25.5691C40.2604 25.7413 39.9637 25.8169 39.6707 25.7792C39.3777 25.7415 39.1123 25.5936 38.9329 25.368C38.7534 25.1425 38.6747 24.8578 38.714 24.5766C38.7533 24.2953 38.9074 24.0406 39.1423 23.8684C39.3773 23.6962 39.6739 23.6206 39.9669 23.6583C40.26 23.696 40.5254 23.8439 40.7048 24.0694C40.8842 24.295 40.963 24.5797 40.9237 24.8609ZM40.2271 14.495C40.3794 14.2718 40.6028 14.1018 40.864 14.0104C41.1251 13.919 41.41 13.9111 41.6763 13.9878C41.9469 14.0528 42.186 14.2051 42.3537 14.4191C42.5213 14.6331 42.6071 14.8959 42.597 15.1635C42.5617 15.5927 42.4948 16.0189 42.3968 16.4391C42.1326 17.8606 41.8764 19.2822 41.5962 20.6884C41.4681 21.2494 41.3 21.7872 41.1158 22.3558C41.0518 22.5336 40.9447 22.6942 40.8036 22.8246C40.7159 22.9227 40.6038 22.9979 40.4777 23.0433C40.3516 23.0888 40.2156 23.1029 40.0824 23.0845C39.9491 23.0661 39.8227 23.0158 39.7151 22.9381C39.6075 22.8604 39.522 22.758 39.4666 22.6402C39.3714 22.4289 39.3197 22.2018 39.3144 21.9717C39.3144 21.0188 39.3144 20.0583 39.3785 19.0978C39.4873 17.727 39.7014 16.3657 40.019 15.0252C40.0564 14.8456 40.1268 14.6738 40.2271 14.518V14.495Z" fill="#3A3B7B"/>
<path fill-rule="evenodd" clip-rule="evenodd" d="M4.31288 31.0356C4.21835 31.2382 4.19242 31.464 4.23862 31.6813C4.26935 31.9677 4.33685 32.2495 4.43958 32.5201C4.56783 32.8515 4.71135 33.1792 4.88831 33.5831C4.92901 33.676 4.97154 33.773 5.01604 33.8751C5.25468 34.4223 5.55411 35.1216 5.95351 36.1336C6.06655 36.4211 6.16694 36.711 6.26803 37.0028C6.30887 37.1207 6.34985 37.2391 6.3918 37.3576C6.54217 37.7792 6.80092 38.1579 7.14388 38.458C7.28951 38.623 7.48268 38.7432 7.69929 38.8033C7.92012 38.8646 8.15499 38.8607 8.37347 38.7922C8.59195 38.7236 8.78385 38.5935 8.92424 38.4188C9.06188 38.2475 9.14373 38.041 9.15964 37.8254C9.24894 37.4053 9.21846 36.9697 9.07128 36.5647C8.8377 35.8922 8.57161 35.2187 8.26476 34.56L8.26335 34.5571C7.75857 33.5266 7.24547 32.5032 6.70808 31.4793L6.70406 31.4721C6.54675 31.2054 6.3423 30.9669 6.09992 30.7675C5.94256 30.5895 5.72551 30.4694 5.48581 30.428C5.241 30.3858 4.98852 30.4283 4.77343 30.5482C4.56996 30.6597 4.40867 30.8304 4.31288 31.0356Z" fill="#3A3B7B"/>
<path fill-rule="evenodd" clip-rule="evenodd" d="M12.0224 28.498C11.2309 28.3013 10.4043 28.2726 9.60018 28.414C8.97737 28.4729 8.36482 28.6108 7.93947 28.8839C7.72314 29.0229 7.54823 29.2014 7.45094 29.4282C7.35311 29.6564 7.34063 29.9172 7.42079 30.2079C7.56717 30.7403 7.75725 31.2579 7.94666 31.7739L7.97734 31.8575L7.97808 31.8594C8.54839 33.3584 9.12414 34.8524 9.70513 36.3412C9.77288 36.5758 9.86869 36.8022 9.99062 37.0156L9.9929 37.0196C10.154 37.2848 10.3606 37.522 10.604 37.7213C10.7257 37.8308 10.8762 37.9066 11.0395 37.9405C11.2043 37.9746 11.3757 37.9647 11.535 37.9117C11.6944 37.8588 11.8356 37.7649 11.9431 37.6402C12.049 37.5175 12.1182 37.3698 12.1437 37.2125C12.2487 36.7853 12.2151 36.3374 12.0472 35.9291C11.9948 35.7916 11.9537 35.6512 11.9104 35.5033C11.896 35.454 11.8814 35.4039 11.8659 35.3528C13.1958 34.8539 14.6109 34.183 15.1085 32.6223C15.3033 32.0829 15.3195 31.4989 15.1549 30.9503C14.9901 30.4011 14.6521 29.9143 14.1873 29.5569C13.5548 29.0566 12.8159 28.6952 12.0224 28.498ZM9.82847 30.4123C9.85466 30.4051 9.88104 30.3984 9.9075 30.3921C10.7733 30.2615 11.6591 30.4355 12.4019 30.8821C12.7292 31.1006 12.8633 31.3434 12.8863 31.5769C12.9101 31.8174 12.8189 32.0781 12.6359 32.3286C12.2901 32.8018 11.6589 33.1806 11.0888 33.2512C10.6732 32.3325 10.2511 31.3767 9.82847 30.4123Z" fill="#3A3B7B"/>
<path d="M17.2989 26.8163C18.2414 26.3985 19.409 26.3263 20.3226 26.6201C20.5527 26.6844 20.7523 26.8236 20.8873 27.0137C21.0215 27.2027 21.0834 27.4304 21.0627 27.658C21.0613 27.8058 21.0235 27.9512 20.9524 28.0824C20.8801 28.2159 20.7752 28.3307 20.6469 28.4172C20.5185 28.5036 20.3703 28.5591 20.2149 28.579C20.0594 28.5989 19.9012 28.5825 19.7537 28.5313L19.7425 28.5274L19.732 28.5221C19.6565 28.4842 19.5763 28.4557 19.4934 28.4371L19.4882 28.436C18.8455 28.2721 18.2393 28.5436 18.0178 28.8772C17.9122 29.0362 17.8991 29.1967 17.9871 29.3428C18.0813 29.4992 18.3123 29.6747 18.7798 29.7998C18.9084 29.8337 19.0402 29.8664 19.1739 29.8996C19.5436 29.9915 19.9278 30.0869 20.2993 30.2192L20.3007 30.2197C22.0146 30.8456 22.6528 32.1418 22.4343 33.361C22.2181 34.5667 21.169 35.6639 19.5914 35.9228C19.0173 36.0449 18.4199 36.0211 17.8582 35.8538C17.2952 35.6859 16.7876 35.3796 16.386 34.9652L16.3756 34.9544C16.2488 34.7982 16.1635 34.6148 16.1257 34.4202C16.091 34.2445 16.1093 34.063 16.1784 33.897C16.2472 33.7319 16.3635 33.5891 16.5136 33.4851C16.6721 33.3671 16.8632 33.2963 17.0632 33.2815C17.2625 33.2668 17.462 33.3084 17.6371 33.4011C17.8119 33.4822 17.9745 33.5856 18.1205 33.7086L18.1232 33.7108C18.3815 33.9375 18.6939 33.9965 18.9935 33.9418C19.2974 33.8863 19.5833 33.7137 19.7671 33.4847C19.9497 33.2571 20.023 32.9867 19.936 32.7243C19.8485 32.4599 19.5852 32.1637 19.0068 31.9161C18.8556 31.8545 18.6988 31.8048 18.5357 31.7564C18.4917 31.7433 18.447 31.7304 18.4017 31.7172C18.2812 31.682 18.1571 31.6459 18.0354 31.606C17.9516 31.5786 17.8685 31.5526 17.7862 31.5268C17.5612 31.4565 17.3418 31.388 17.1307 31.296C16.6713 31.1459 16.2743 30.8576 15.999 30.4738C15.7225 30.0885 15.5834 29.6277 15.6023 29.1603C15.6038 28.0212 16.3513 27.2364 17.2989 26.8163Z" fill="#3A3B7B"/>
<path d="M29.2489 26.695C29.0661 26.6094 28.864 26.5687 28.6608 26.5767C28.4576 26.5847 28.2597 26.6411 28.0849 26.741C27.9112 26.8401 27.7658 26.9789 27.6616 27.1451C27.566 27.285 27.4999 27.4415 27.4669 27.6058C27.4339 27.7699 27.4347 27.9387 27.4692 28.1025C27.5032 28.313 27.541 28.5177 27.5782 28.7196C27.6399 29.0537 27.7 29.3802 27.7396 29.7132L27.741 29.7217C27.8312 30.2438 27.8784 30.772 27.8827 31.3012L27.8831 31.3087C27.9139 31.8803 27.711 32.4407 27.3178 32.8711L27.3116 32.8788C27.1837 33.0361 27.0127 33.1562 26.8176 33.2256C26.6226 33.295 26.4114 33.3109 26.2075 33.2716C26.0036 33.2324 25.8151 33.1394 25.6631 33.0032C25.5111 32.867 25.4015 32.6923 25.3467 32.4998C25.2299 32.094 25.1623 31.6766 25.1451 31.2559L25.3447 28.2068C25.3476 28.167 25.351 28.1261 25.3544 28.0849C25.362 27.9923 25.3698 27.8979 25.373 27.81C25.3777 27.6805 25.3737 27.5474 25.3422 27.4214C25.3101 27.2926 25.2489 27.17 25.1404 27.0657C25.033 26.9624 24.8879 26.8862 24.7055 26.8344C24.3754 26.7427 24.0964 26.7456 23.8639 26.8403C23.6312 26.935 23.4718 27.1109 23.359 27.314C23.2471 27.5154 23.1752 27.7539 23.1208 27.9927C23.0805 28.17 23.048 28.356 23.0172 28.5331C23.0065 28.5941 22.9961 28.6541 22.9856 28.7123L22.9853 28.714C22.8204 29.6852 22.7713 30.6713 22.839 31.6532C22.8516 32.1839 22.9669 32.7077 23.1791 33.1978C23.4185 33.8303 23.852 34.3783 24.4225 34.7694C24.9942 35.1614 25.6765 35.3774 26.3789 35.3888C27.0814 35.4002 27.7709 35.2065 28.3561 34.8334C28.9404 34.4608 29.3932 33.9268 29.6546 33.302C30.0203 32.5062 30.1921 31.6407 30.1566 30.7715C30.1352 30.1369 30.0992 29.4974 30.0634 28.8612C30.0458 28.5491 30.0283 28.2377 30.0126 27.9282C30.0046 27.6178 29.898 27.3172 29.7069 27.0667C29.5887 26.9083 29.4313 26.7806 29.2489 26.695Z" fill="#3A3B7B"/>
<path d="M35.7175 31.4763C35.699 31.4989 35.6794 31.5223 35.659 31.5466C35.5104 30.7235 35.3726 29.9007 35.2346 29.0766C35.1851 28.781 35.1354 28.4841 35.0853 28.188L35.0797 28.155L35.0614 28.1264C35.027 28.0727 35.0236 28.0201 35.0236 27.9077V27.8948L35.0215 27.8819C34.9842 27.65 34.8748 27.4341 34.7079 27.2626C34.5413 27.0916 34.3251 26.9726 34.0872 26.9209C33.8497 26.8647 33.6001 26.8771 33.3699 26.9565C33.1403 27.0358 32.9401 27.1783 32.7944 27.3662C32.6733 27.5103 32.574 27.6702 32.4996 27.841C32.3307 28.2091 32.1604 28.578 31.9896 28.948L31.9866 28.9544C31.5602 29.878 31.1309 30.8077 30.7141 31.7448L30.7128 31.7479C30.4569 32.3555 30.2457 32.9957 30.0352 33.634C29.9932 33.7614 29.9511 33.8887 29.9088 34.0157C29.8328 34.2172 29.7995 34.4311 29.8109 34.645C29.7971 34.8364 29.8448 35.0274 29.9478 35.1921C30.0528 35.3602 30.2102 35.4924 30.3976 35.5703C30.5962 35.6538 30.8182 35.6716 31.0286 35.6207C31.2385 35.5699 31.4248 35.4536 31.5584 35.2902C31.7289 35.0888 31.8756 34.8692 31.9953 34.6365C32.3484 33.9433 32.6859 33.2416 33.0218 32.543C33.1518 32.2728 33.2781 32.0308 33.4217 31.7672C33.4316 31.7997 33.4417 31.8314 33.4521 31.8631C33.6027 32.4995 33.8569 33.109 34.2053 33.6694C34.2712 33.7881 34.3631 33.8918 34.4745 33.9735C34.5873 34.0561 34.7175 34.1141 34.856 34.1436C34.9946 34.1731 35.1381 34.1732 35.2767 34.144C35.4151 34.1149 35.5457 34.0568 35.6585 33.9745L35.8819 33.8141L37.6158 32.4124L37.5132 33.0395C37.3725 33.9015 37.2328 34.7564 37.0844 35.6114C36.9874 35.9904 36.9875 36.3862 37.0849 36.7651C37.127 36.9783 37.2344 37.1746 37.3934 37.3289C37.5538 37.4845 37.7591 37.5902 37.9828 37.6324C38.2065 37.6745 38.4383 37.6512 38.648 37.5653C38.8547 37.4808 39.0305 37.3393 39.1533 37.1591C39.4392 36.8187 39.6171 36.4065 39.666 35.9717C39.7396 35.3577 39.8227 34.7353 39.9059 34.1131C40.0017 33.396 40.0976 32.679 40.1785 31.9758L40.1787 31.9737C40.2566 31.2039 40.2943 30.431 40.2917 29.6576C40.3087 29.4132 40.2453 29.1698 40.1102 28.9617C39.9747 28.7529 39.7739 28.5906 39.5366 28.4977C39.2898 28.39 39.0135 28.3612 38.7484 28.4156C38.485 28.4697 38.2466 28.603 38.0677 28.796C37.7479 29.0799 37.4479 29.3836 37.1696 29.7053L37.1677 29.7075C36.8639 30.0709 36.5621 30.4414 36.2624 30.8095C36.0801 31.0332 35.8983 31.2565 35.7175 31.4763Z" fill="#3A3B7B"/>
</g>
<defs>
<clipPath id="clip0_8_7380">
<rect width="47" height="29" fill="white" transform="translate(0 9.84668)"/>
</clipPath>
</defs>
</svg>
