<svg width="47" height="30" viewBox="0 0 47 30" fill="none" xmlns="http://www.w3.org/2000/svg">
<g clip-path="url(#clip0_3_4110)">
<path d="M43.9968 4.41151C43.9968 4.44532 43.9968 4.48759 43.988 4.51295C43.9439 4.84263 43.9439 5.17232 43.9703 5.51046C43.988 5.59499 44.0056 5.67953 44.0761 5.74716C44.1905 5.87395 44.3667 5.8486 44.4372 5.69643C44.4724 5.62035 44.4724 5.54427 44.4547 5.46819C44.3667 5.14696 44.3491 4.80882 44.3403 4.47913C44.3403 4.46223 44.3403 4.43686 44.3403 4.41151C44.4372 4.40305 44.5252 4.3946 44.6045 4.3946C44.6662 4.38615 44.719 4.37769 44.7631 4.35233C44.8951 4.28471 44.8951 4.141 44.7542 4.07337C44.7014 4.04801 44.6309 4.03955 44.5693 4.03955C44.3491 4.04801 44.1289 4.04801 43.9087 4.04801C43.8294 4.04801 43.7501 4.05646 43.6708 4.06491C43.6268 4.07337 43.574 4.07337 43.5388 4.09873C43.4771 4.12409 43.4419 4.16635 43.4419 4.22553C43.4507 4.28471 43.4771 4.31852 43.5388 4.34388C43.574 4.36924 43.618 4.37769 43.6621 4.37769C43.7677 4.38615 43.8823 4.40305 43.9968 4.41151ZM46.4189 4.80037C46.4189 4.80882 46.4277 4.81727 46.4277 4.81727C46.4629 5.04551 46.4982 5.26531 46.5246 5.4851C46.5334 5.56117 46.5422 5.6288 46.5951 5.68798C46.7095 5.83168 46.8857 5.81478 46.9649 5.66262C47.0002 5.58654 47.009 5.51046 46.9914 5.42592C46.9386 5.17232 46.9121 4.91871 46.8593 4.67356C46.824 4.5214 46.78 4.37769 46.736 4.24244C46.7095 4.1579 46.6479 4.09872 46.5422 4.09027C46.4365 4.07337 46.3572 4.12409 46.3132 4.20017C46.2603 4.26779 46.2163 4.33542 46.1811 4.41151C46.1194 4.54676 46.0666 4.68202 45.9961 4.80882C45.9873 4.84263 45.9785 4.86799 45.9609 4.89335C45.9521 4.87644 45.9433 4.86799 45.9433 4.86799C45.8288 4.65666 45.7231 4.44532 45.6086 4.24244C45.5909 4.22553 45.5821 4.20862 45.5733 4.19171C45.5205 4.11564 45.4589 4.07337 45.362 4.07337C45.2739 4.08182 45.2034 4.13254 45.1594 4.20862C45.1417 4.24244 45.1418 4.26779 45.133 4.30161C45.0977 4.57212 45.0537 4.84263 45.0185 5.11314C45.0008 5.26531 44.992 5.41747 44.992 5.56963C44.9832 5.60344 44.992 5.64571 45.0096 5.67953C45.0273 5.74715 45.0801 5.78942 45.1505 5.79787C45.2386 5.80633 45.3003 5.78097 45.3267 5.71334C45.3531 5.66262 45.362 5.62035 45.3708 5.57809C45.406 5.42592 45.4324 5.28221 45.4589 5.13851C45.4765 5.05397 45.4852 4.98634 45.5117 4.89335C45.5293 4.92717 45.5469 4.95253 45.5645 4.97789C45.6438 5.07933 45.7231 5.18077 45.82 5.26531C45.9168 5.33293 45.9961 5.32448 46.0754 5.2484C46.093 5.23149 46.1018 5.22304 46.1194 5.20613C46.1987 5.08778 46.2956 4.96944 46.3748 4.85108C46.3925 4.83418 46.4013 4.81727 46.4189 4.80037Z" fill="#3A3B7B"/>
<path d="M26.1242 4.57736C26.063 4.73801 26.0513 4.85376 26.0795 4.94996C26.1108 5.08077 26.1918 5.1236 26.3018 5.09033C27.3363 4.8448 29.6049 5.54172 30.4448 5.73596C30.6428 5.77675 30.804 5.53133 30.6688 5.3113C30.4716 5.09822 28.204 4.18592 27.3388 4.13618C26.9997 4.11779 26.3934 4.03432 26.1242 4.57736Z" fill="#3A3B7B"/>
<path d="M34.9906 1.62411C35.1008 1.68519 35.1625 1.74345 35.1929 1.80855C35.2382 1.89394 35.2143 1.95302 35.1382 1.98317C34.4543 2.3035 33.5443 3.68259 33.177 4.15822C33.088 4.26764 32.8826 4.20406 32.8516 4.02412C32.8579 3.82068 33.6646 2.32406 34.1148 1.91643C34.2917 1.75728 34.584 1.44501 34.9906 1.62411Z" fill="#3A3B7B"/>
<path d="M29.5445 0.945409C29.6769 0.849592 29.8146 0.816015 29.8849 0.878284C30.9167 1.72518 31.4638 3.06632 31.8026 4.2941C31.8154 4.32271 31.8162 4.36375 31.806 4.40657C31.8017 4.44317 31.7739 4.48184 31.7296 4.51175C31.6824 4.54478 31.6417 4.55484 31.6225 4.52638C31.1703 3.93605 28.5875 1.63918 29.5445 0.945409Z" fill="#3A3B7B"/>
<path d="M7.69524 15.6285C7.94253 15.4518 8.21137 15.3047 8.49586 15.1905C8.7935 15.1089 9.11075 15.1224 9.39966 15.2291C9.68851 15.3359 9.93338 15.53 10.0971 15.7822C10.2435 16.0337 10.3008 16.3241 10.2604 16.6096C10.2199 16.8951 10.084 17.1602 9.87289 17.3651C9.70926 17.5312 9.52348 17.6759 9.3205 17.7954C8.41582 18.3564 7.50308 18.8866 6.59039 19.4475C6.40363 19.5879 6.20551 19.7139 5.99793 19.8241C5.68217 19.9752 5.32132 20.0157 4.97776 19.9385C4.6342 19.8614 4.32955 19.6713 4.11648 19.4014C3.95719 19.2103 3.82277 19.0013 3.71616 18.779C2.8515 17.0347 1.95481 15.2981 1.12217 13.523C0.737866 12.7546 0.425627 11.8709 0.121393 11.018C-0.010233 10.7702 -0.0359366 10.4829 0.0497553 10.2171C0.135447 9.9514 0.325774 9.72823 0.580249 9.5951C0.834727 9.46196 1.13327 9.4294 1.4124 9.50427C1.69152 9.57915 1.92921 9.75559 2.0749 9.99602C2.52271 10.5672 2.91911 11.1739 3.25981 11.8095C4.12448 13.3463 4.94912 14.8831 5.78176 16.3738C5.83024 16.4562 5.8837 16.5357 5.94188 16.612C6.56859 16.3591 7.15803 16.0285 7.69524 15.6285Z" fill="#3A3B7B"/>
<path d="M16.6352 15.0924C14.6577 17.313 11.3432 16.7521 9.67789 13.8936C8.49295 11.865 8.28481 8.51469 10.8628 6.40156C11.4133 5.95916 12.0716 5.65779 12.7763 5.52556C13.6403 5.40668 14.5213 5.55297 15.2935 5.94354C16.0656 6.3341 16.6894 6.94893 17.0756 7.70019C18.4847 10.1591 18.2845 13.2942 16.6352 15.0924ZM15.8346 9.91322C15.6245 9.30896 15.2031 8.79309 14.6417 8.4532C14.324 8.2359 13.938 8.13024 13.5487 8.15404C13.1594 8.17783 12.7905 8.32962 12.5041 8.58383C11.3592 9.55975 11.119 11.8727 11.9516 13.2481C12.0578 13.4724 12.2136 13.6717 12.4084 13.8322C12.6032 13.9926 12.8321 14.1102 13.0792 14.1768C13.3263 14.2434 13.5855 14.2574 13.8389 14.2178C14.0922 14.1781 14.3334 14.0859 14.5457 13.9474C15.1663 13.4856 15.6216 12.8497 15.8483 12.1281C16.075 11.4065 16.0618 10.635 15.8107 9.92093L15.8346 9.91322Z" fill="#3A3B7B"/>
<path d="M24.7055 10.8815C24.5031 10.9233 24.294 10.9258 24.0904 10.8888C23.887 10.8518 23.6932 10.7762 23.5207 10.6663C23.3697 10.5834 23.2397 10.4695 23.14 10.3326C23.0405 10.1957 22.9737 10.0394 22.9446 9.87472C22.9155 9.71014 22.9248 9.54141 22.9718 9.38066C23.0188 9.21991 23.1024 9.07115 23.2164 8.94507C23.4152 8.69171 23.6973 8.51033 24.0171 8.43025C24.8518 8.19772 25.7112 8.05595 26.579 8.00764C26.7697 7.98635 26.9629 8.00184 27.1472 8.05319C27.3316 8.10459 27.5033 8.19074 27.6525 8.30674C27.8016 8.42267 27.9252 8.56609 28.0158 8.72849C28.1064 8.89089 28.1623 9.06904 28.1802 9.25247C28.4304 10.1534 28.4578 11.0981 28.2603 12.0111C27.5398 14.9618 25.0578 15.9761 22.2717 15.0309C21.4896 14.7782 20.8039 14.3074 20.3022 13.6785C19.633 12.9212 19.1586 12.0237 18.9171 11.0582C18.7214 10.1985 18.7428 9.30632 18.9797 8.45615C19.2164 7.60599 19.6616 6.8225 20.2781 6.17112C20.8632 5.46314 21.6226 4.90597 22.4879 4.54976C23.0346 4.26052 23.6744 4.17828 24.2813 4.31924C24.4189 4.3558 24.5439 4.42705 24.6432 4.52559C24.7425 4.62414 24.8125 4.74638 24.846 4.87966C24.8795 5.01292 24.8752 5.15237 24.8336 5.28353C24.792 5.41468 24.7147 5.53277 24.6095 5.62554C24.4096 5.79925 24.1924 5.95367 23.961 6.08659C23.2492 6.52164 22.6298 7.08223 22.1356 7.73867C21.8116 8.16345 21.5885 8.65125 21.482 9.16764C21.3755 9.68404 21.3881 10.2166 21.5191 10.7278C21.7007 11.4249 22.1036 12.0506 22.672 12.5182C24.4333 14.0551 26.7231 12.572 26.3228 10.4742C25.7384 10.6126 25.226 10.7586 24.7055 10.8815Z" fill="#3A3B7B"/>
<path d="M35.4661 15.2151C32.8641 16.7519 29.9019 15.2151 29.2533 11.9878C28.781 9.68254 29.6777 6.45518 32.8161 5.22572C33.4839 4.96977 34.2081 4.8799 34.9217 4.96446C35.7791 5.11509 36.5656 5.52019 37.1703 6.12265C37.775 6.7251 38.1675 7.49449 38.2923 8.32244C38.8207 11.0656 37.6198 13.9933 35.4661 15.2151ZM36.3709 10.0437C36.3701 9.40533 36.1348 8.78763 35.7064 8.29937C35.4773 7.99738 35.1463 7.781 34.7696 7.68708C34.3929 7.59322 33.994 7.62763 33.6407 7.78456C32.2317 8.36851 31.2389 10.4893 31.5992 12.0493C31.6267 12.2941 31.7096 12.5301 31.842 12.741C31.9745 12.9518 32.1534 13.1324 32.3661 13.27C32.5789 13.4075 32.8204 13.4989 33.0737 13.5376C33.3271 13.5762 33.5862 13.5613 33.8329 13.4939C34.5777 13.2441 35.2226 12.7774 35.6776 12.1589C36.1326 11.5403 36.375 10.8008 36.3709 10.0437Z" fill="#3A3B7B"/>
<path d="M40.9237 15.8609C40.8844 16.1421 40.7304 16.3969 40.4954 16.5691C40.2604 16.7413 39.9637 16.8169 39.6707 16.7792C39.3777 16.7415 39.1123 16.5936 38.9329 16.368C38.7534 16.1425 38.6747 15.8578 38.714 15.5766C38.7533 15.2953 38.9074 15.0406 39.1423 14.8684C39.3773 14.6962 39.6739 14.6206 39.9669 14.6583C40.26 14.696 40.5254 14.8439 40.7048 15.0694C40.8842 15.295 40.963 15.5797 40.9237 15.8609ZM40.2271 5.49498C40.3794 5.27178 40.6028 5.1018 40.864 5.01041C41.1251 4.91901 41.41 4.91109 41.6763 4.98783C41.9469 5.05282 42.186 5.20508 42.3537 5.4191C42.5213 5.63313 42.6071 5.89593 42.597 6.1635C42.5617 6.59268 42.4948 7.01893 42.3968 7.43905C42.1326 8.86064 41.8764 10.2822 41.5962 11.6884C41.4681 12.2494 41.3 12.7872 41.1158 13.3558C41.0518 13.5336 40.9447 13.6942 40.8036 13.8246C40.7159 13.9227 40.6038 13.9979 40.4777 14.0433C40.3516 14.0888 40.2156 14.1029 40.0824 14.0845C39.9491 14.0661 39.8227 14.0158 39.7151 13.9381C39.6075 13.8604 39.522 13.758 39.4666 13.6402C39.3714 13.4289 39.3197 13.2018 39.3144 12.9717C39.3144 12.0188 39.3144 11.0583 39.3785 10.0978C39.4873 8.72698 39.7014 7.36575 40.019 6.02518C40.0564 5.84558 40.1268 5.67383 40.2271 5.51803V5.49498Z" fill="#3A3B7B"/>
<path fill-rule="evenodd" clip-rule="evenodd" d="M4.31288 22.0356C4.21835 22.2382 4.19242 22.464 4.23862 22.6813C4.26935 22.9677 4.33685 23.2495 4.43958 23.5201C4.56783 23.8515 4.71135 24.1792 4.88831 24.5831C4.92901 24.676 4.97154 24.773 5.01604 24.8751C5.25468 25.4223 5.55411 26.1216 5.95351 27.1336C6.06655 27.4211 6.16694 27.711 6.26803 28.0028C6.30887 28.1207 6.34985 28.2391 6.3918 28.3576C6.54217 28.7792 6.80092 29.1579 7.14388 29.458C7.28951 29.623 7.48268 29.7432 7.69929 29.8033C7.92012 29.8646 8.15499 29.8607 8.37347 29.7922C8.59195 29.7236 8.78385 29.5935 8.92424 29.4188C9.06188 29.2475 9.14373 29.041 9.15964 28.8254C9.24894 28.4053 9.21846 27.9697 9.07128 27.5647C8.8377 26.8922 8.57161 26.2187 8.26476 25.56L8.26335 25.5571C7.75857 24.5266 7.24547 23.5032 6.70808 22.4793L6.70406 22.4721C6.54675 22.2054 6.3423 21.9669 6.09992 21.7675C5.94256 21.5895 5.72551 21.4694 5.48581 21.428C5.241 21.3858 4.98852 21.4283 4.77343 21.5482C4.56996 21.6597 4.40867 21.8304 4.31288 22.0356Z" fill="#3A3B7B"/>
<path fill-rule="evenodd" clip-rule="evenodd" d="M12.0224 19.498C11.2309 19.3013 10.4043 19.2726 9.60018 19.414C8.97737 19.4729 8.36482 19.6108 7.93947 19.8839C7.72314 20.0229 7.54823 20.2014 7.45094 20.4282C7.35311 20.6564 7.34063 20.9172 7.42079 21.2079C7.56717 21.7403 7.75725 22.2579 7.94666 22.7739L7.97734 22.8575L7.97808 22.8594C8.54839 24.3584 9.12414 25.8524 9.70513 27.3412C9.77288 27.5758 9.86869 27.8022 9.99062 28.0156L9.9929 28.0196C10.154 28.2848 10.3606 28.522 10.604 28.7213C10.7257 28.8308 10.8762 28.9066 11.0395 28.9405C11.2043 28.9746 11.3757 28.9647 11.535 28.9117C11.6944 28.8588 11.8356 28.7649 11.9431 28.6402C12.049 28.5175 12.1182 28.3698 12.1437 28.2125C12.2487 27.7853 12.2151 27.3374 12.0472 26.9291C11.9948 26.7916 11.9537 26.6512 11.9104 26.5033C11.896 26.454 11.8814 26.4039 11.8659 26.3528C13.1958 25.8539 14.6109 25.183 15.1085 23.6223C15.3033 23.0829 15.3195 22.4989 15.1549 21.9503C14.9901 21.4011 14.6521 20.9143 14.1873 20.5569C13.5548 20.0566 12.8159 19.6952 12.0224 19.498ZM9.82847 21.4123C9.85466 21.4051 9.88104 21.3984 9.9075 21.3921C10.7733 21.2615 11.6591 21.4355 12.4019 21.8821C12.7292 22.1006 12.8633 22.3434 12.8863 22.5769C12.9101 22.8174 12.8189 23.0781 12.6359 23.3286C12.2901 23.8018 11.6589 24.1806 11.0888 24.2512C10.6732 23.3325 10.2511 22.3767 9.82847 21.4123Z" fill="#3A3B7B"/>
<path d="M17.2989 17.8163C18.2414 17.3985 19.409 17.3263 20.3226 17.6201C20.5527 17.6844 20.7523 17.8236 20.8873 18.0137C21.0215 18.2027 21.0834 18.4304 21.0627 18.658C21.0613 18.8058 21.0235 18.9512 20.9524 19.0824C20.8801 19.2159 20.7752 19.3307 20.6469 19.4172C20.5185 19.5036 20.3703 19.5591 20.2149 19.579C20.0594 19.5989 19.9012 19.5825 19.7537 19.5313L19.7425 19.5274L19.732 19.5221C19.6565 19.4842 19.5763 19.4557 19.4934 19.4371L19.4882 19.436C18.8455 19.2721 18.2393 19.5436 18.0178 19.8772C17.9122 20.0362 17.8991 20.1967 17.9871 20.3428C18.0813 20.4992 18.3123 20.6747 18.7798 20.7998C18.9084 20.8337 19.0402 20.8664 19.1739 20.8996C19.5436 20.9915 19.9278 21.0869 20.2993 21.2192L20.3007 21.2197C22.0146 21.8456 22.6528 23.1418 22.4343 24.361C22.2181 25.5667 21.169 26.6639 19.5914 26.9228C19.0173 27.0449 18.4199 27.0211 17.8582 26.8538C17.2952 26.6859 16.7876 26.3796 16.386 25.9652L16.3756 25.9544C16.2488 25.7982 16.1635 25.6148 16.1257 25.4202C16.091 25.2445 16.1093 25.063 16.1784 24.897C16.2472 24.7319 16.3635 24.5891 16.5136 24.4851C16.6721 24.3671 16.8632 24.2963 17.0632 24.2815C17.2625 24.2668 17.462 24.3084 17.6371 24.4011C17.8119 24.4822 17.9745 24.5856 18.1205 24.7086L18.1232 24.7108C18.3815 24.9375 18.6939 24.9965 18.9935 24.9418C19.2974 24.8863 19.5833 24.7137 19.7671 24.4847C19.9497 24.2571 20.023 23.9867 19.936 23.7243C19.8485 23.4599 19.5852 23.1637 19.0068 22.9161C18.8556 22.8545 18.6988 22.8048 18.5357 22.7564C18.4917 22.7433 18.447 22.7304 18.4017 22.7172C18.2812 22.682 18.1571 22.6459 18.0354 22.606C17.9516 22.5786 17.8685 22.5526 17.7862 22.5268C17.5612 22.4565 17.3418 22.388 17.1307 22.296C16.6713 22.1459 16.2743 21.8576 15.999 21.4738C15.7225 21.0885 15.5834 20.6277 15.6023 20.1603C15.6038 19.0212 16.3513 18.2364 17.2989 17.8163Z" fill="#3A3B7B"/>
<path d="M29.2489 17.695C29.0661 17.6094 28.864 17.5687 28.6608 17.5767C28.4576 17.5847 28.2597 17.6411 28.0849 17.741C27.9112 17.8401 27.7658 17.9789 27.6616 18.1451C27.566 18.285 27.4999 18.4415 27.4669 18.6058C27.4339 18.7699 27.4347 18.9387 27.4692 19.1025C27.5032 19.313 27.541 19.5177 27.5782 19.7196C27.6399 20.0537 27.7 20.3802 27.7396 20.7132L27.741 20.7217C27.8312 21.2438 27.8784 21.772 27.8827 22.3012L27.8831 22.3087C27.9139 22.8803 27.711 23.4407 27.3178 23.8711L27.3116 23.8788C27.1837 24.0361 27.0127 24.1562 26.8176 24.2256C26.6226 24.295 26.4114 24.3109 26.2075 24.2716C26.0036 24.2324 25.8151 24.1394 25.6631 24.0032C25.5111 23.867 25.4015 23.6923 25.3467 23.4998C25.2299 23.094 25.1623 22.6766 25.1451 22.2559L25.3447 19.2068C25.3476 19.167 25.351 19.1261 25.3544 19.0849C25.362 18.9923 25.3698 18.8979 25.373 18.81C25.3777 18.6805 25.3737 18.5474 25.3422 18.4214C25.3101 18.2926 25.2489 18.17 25.1404 18.0657C25.033 17.9624 24.8879 17.8862 24.7055 17.8344C24.3754 17.7427 24.0964 17.7456 23.8639 17.8403C23.6312 17.935 23.4718 18.1109 23.359 18.314C23.2471 18.5154 23.1752 18.7539 23.1208 18.9927C23.0805 19.17 23.048 19.356 23.0172 19.5331C23.0065 19.5941 22.9961 19.6541 22.9856 19.7123L22.9853 19.714C22.8204 20.6852 22.7713 21.6713 22.839 22.6532C22.8516 23.1839 22.9669 23.7077 23.1791 24.1978C23.4185 24.8303 23.852 25.3783 24.4225 25.7694C24.9942 26.1614 25.6765 26.3774 26.3789 26.3888C27.0814 26.4002 27.7709 26.2065 28.3561 25.8334C28.9404 25.4608 29.3932 24.9268 29.6546 24.302C30.0203 23.5062 30.1921 22.6407 30.1566 21.7715C30.1352 21.1369 30.0992 20.4974 30.0634 19.8612C30.0458 19.5491 30.0283 19.2377 30.0126 18.9282C30.0046 18.6178 29.898 18.3172 29.7069 18.0667C29.5887 17.9083 29.4313 17.7806 29.2489 17.695Z" fill="#3A3B7B"/>
<path d="M35.7175 22.4763C35.699 22.4989 35.6794 22.5223 35.659 22.5466C35.5104 21.7235 35.3726 20.9007 35.2346 20.0766C35.1851 19.781 35.1354 19.4841 35.0853 19.188L35.0797 19.155L35.0614 19.1264C35.027 19.0727 35.0236 19.0201 35.0236 18.9077V18.8948L35.0215 18.8819C34.9842 18.65 34.8748 18.4341 34.7079 18.2626C34.5413 18.0916 34.3251 17.9726 34.0872 17.9209C33.8497 17.8647 33.6001 17.8771 33.3699 17.9565C33.1403 18.0358 32.9401 18.1783 32.7944 18.3662C32.6733 18.5103 32.574 18.6702 32.4996 18.841C32.3307 19.2091 32.1604 19.578 31.9896 19.948L31.9866 19.9544C31.5602 20.878 31.1309 21.8077 30.7141 22.7448L30.7128 22.7479C30.4569 23.3555 30.2457 23.9957 30.0352 24.634C29.9932 24.7614 29.9511 24.8887 29.9088 25.0157C29.8328 25.2172 29.7995 25.4311 29.8109 25.645C29.7971 25.8364 29.8448 26.0274 29.9478 26.1921C30.0528 26.3602 30.2102 26.4924 30.3976 26.5703C30.5962 26.6538 30.8182 26.6716 31.0286 26.6207C31.2385 26.5699 31.4248 26.4536 31.5584 26.2902C31.7289 26.0888 31.8756 25.8692 31.9953 25.6365C32.3484 24.9433 32.6859 24.2416 33.0218 23.543C33.1518 23.2728 33.2781 23.0308 33.4217 22.7672C33.4316 22.7997 33.4417 22.8314 33.4521 22.8631C33.6027 23.4995 33.8569 24.109 34.2053 24.6694C34.2712 24.7881 34.3631 24.8918 34.4745 24.9735C34.5873 25.0561 34.7175 25.1141 34.856 25.1436C34.9946 25.1731 35.1381 25.1732 35.2767 25.144C35.4151 25.1149 35.5457 25.0568 35.6585 24.9745L35.8819 24.8141L37.6158 23.4124L37.5132 24.0395C37.3725 24.9015 37.2328 25.7564 37.0844 26.6114C36.9874 26.9904 36.9875 27.3862 37.0849 27.7651C37.127 27.9783 37.2344 28.1746 37.3934 28.3289C37.5538 28.4845 37.7591 28.5902 37.9828 28.6324C38.2065 28.6745 38.4383 28.6512 38.648 28.5653C38.8547 28.4808 39.0305 28.3393 39.1533 28.1591C39.4392 27.8187 39.6171 27.4065 39.666 26.9717C39.7396 26.3577 39.8227 25.7353 39.9059 25.1131C40.0017 24.396 40.0976 23.679 40.1785 22.9758L40.1787 22.9737C40.2566 22.2039 40.2943 21.431 40.2917 20.6576C40.3087 20.4132 40.2453 20.1698 40.1102 19.9617C39.9747 19.7529 39.7739 19.5906 39.5366 19.4977C39.2898 19.39 39.0135 19.3612 38.7484 19.4156C38.485 19.4697 38.2466 19.603 38.0677 19.796C37.7479 20.0799 37.4479 20.3836 37.1696 20.7053L37.1677 20.7075C36.8639 21.0709 36.5621 21.4414 36.2624 21.8095C36.0801 22.0332 35.8983 22.2565 35.7175 22.4763Z" fill="#3A3B7B"/>
</g>
<defs>
<clipPath id="clip0_3_4110">
<rect width="47" height="29" fill="white" transform="translate(0 0.84668)"/>
</clipPath>
</defs>
</svg>
