<svg width="442" height="434" viewBox="0 0 442 434" fill="none" xmlns="http://www.w3.org/2000/svg">
<path d="M376.369 433.13C376.369 433.275 304.601 433.399 216.1 433.399C127.599 433.399 55.8003 433.275 55.8003 433.13C55.8003 432.985 127.558 432.861 216.1 432.861C304.642 432.861 376.369 432.996 376.369 433.13Z" fill="#263238"/>
<path d="M306.441 306.606C290.473 295.454 286.855 274.753 287.486 256.139C287.589 253.038 287.248 249.752 288.726 247.034C290.204 244.315 293.656 242.445 296.436 243.747C298.741 244.832 299.743 247.519 301.035 249.741C302.759 252.701 305.285 255.113 308.322 256.697C310.296 257.731 312.745 258.351 314.698 257.276C317.386 255.798 317.696 252.108 317.675 249.008C317.675 243.241 317.641 237.48 317.572 231.727C317.386 228.638 317.7 225.539 318.502 222.549C319.463 219.614 321.602 216.896 324.527 216.069C327.452 215.242 331.1 216.948 331.762 219.966C331.876 221.244 331.907 222.528 331.855 223.81C331.938 225.102 332.537 226.518 333.746 226.911C334.956 227.304 336.216 226.404 337.147 225.495C340.33 222.394 342.5 218.353 344.516 214.364C346.531 210.374 348.505 206.271 351.399 202.871C354.293 199.471 358.293 196.773 362.768 196.515C367.243 196.256 371.904 199.006 373.02 203.346C374.136 207.687 371.604 212.121 368.886 215.645C364.784 220.877 359.949 225.489 354.53 229.34C353.473 229.917 352.629 230.819 352.122 231.913C351.451 233.98 353.404 236.047 355.44 236.698C357.745 237.463 360.246 237.225 362.675 237.515C365.103 237.804 367.687 238.858 368.607 241.132C369.868 244.295 367.222 247.602 364.628 249.772C359.419 254.113 353.504 257.529 347.141 259.87C344.867 260.697 342.48 261.431 340.64 263.022C338.8 264.614 337.705 267.394 338.811 269.575C339.916 271.756 342.759 272.448 345.146 272.004C347.534 271.559 349.652 270.278 351.926 269.42C356.174 267.818 361.651 268.107 364.328 271.776C365.158 273.04 365.683 274.479 365.862 275.98C366.041 277.481 365.87 279.003 365.362 280.427C364.327 283.26 362.735 285.857 360.68 288.065C353.911 296.152 345.116 302.298 335.193 305.872C325.344 309.283 316.218 310.213 306.43 306.627" fill="#4CAF4F"/>
<path d="M368.473 199.067C368.473 199.067 368.38 199.171 368.173 199.357L367.253 200.173C366.447 200.897 365.259 201.951 363.76 203.346C359.511 207.291 355.566 211.551 351.957 216.09C349.652 218.952 347.265 222.198 344.722 225.722C342.18 229.246 339.555 233.05 336.95 237.091C334.174 241.352 331.631 245.762 329.333 250.299C328.134 252.666 327.08 255.136 325.995 257.658L322.791 265.358C318.568 275.056 314.89 284.983 311.774 295.092C309.264 303.363 307.534 311.851 306.606 320.445C306.005 326.244 305.908 332.085 306.317 337.901C306.482 339.968 306.637 341.549 306.782 342.624C306.844 343.141 306.885 343.554 306.926 343.854V344.278C306.882 344.143 306.851 344.005 306.833 343.864C306.782 343.565 306.72 343.162 306.637 342.645C306.451 341.611 306.255 339.978 306.069 337.911C305.57 332.084 305.604 326.224 306.172 320.403C307.042 311.773 308.734 303.246 311.226 294.937C314.316 284.8 317.984 274.848 322.212 265.13L325.499 257.462C326.584 254.95 327.649 252.459 328.858 250.082C331.171 245.531 333.735 241.111 336.537 236.843C339.183 232.709 341.849 228.967 344.361 225.474C346.872 221.981 349.301 218.715 351.595 215.862C355.24 211.336 359.239 207.106 363.553 203.212C365.083 201.837 366.302 200.804 367.129 200.111L368.09 199.336C368.208 199.234 368.336 199.143 368.473 199.067Z" fill="#263238"/>
<path d="M328.992 250.062C328.846 249.636 328.746 249.196 328.692 248.749C328.527 247.892 328.341 246.682 328.124 245.111C327.679 242.011 327.225 237.763 326.739 233.06C326.253 228.358 325.705 224.1 325.251 221.03C325.013 219.501 324.806 218.271 324.662 217.413C324.549 216.974 324.49 216.523 324.486 216.069C324.664 216.483 324.792 216.917 324.868 217.361C325.096 218.209 325.354 219.428 325.643 220.968C326.232 224.069 326.811 228.286 327.297 232.998C327.783 237.711 328.196 241.845 328.517 245.06C328.672 246.507 328.806 247.737 328.909 248.718C328.99 249.161 329.017 249.612 328.992 250.062Z" fill="#263238"/>
<path d="M368.762 242.641C368.259 242.751 367.747 242.813 367.232 242.827C366.199 242.92 364.731 243.044 362.912 243.251C359.274 243.644 354.272 244.367 348.784 245.401C343.296 246.434 338.366 247.602 334.821 248.501C333.054 248.956 331.628 249.37 330.687 249.649C330.185 249.827 329.665 249.952 329.137 250.021C329.614 249.78 330.112 249.583 330.625 249.432C331.596 249.091 333.002 248.615 334.759 248.109C338.283 247.075 343.213 245.845 348.722 244.791C353.388 243.899 358.097 243.243 362.83 242.827C364.659 242.672 366.137 242.61 367.17 242.59C367.701 242.553 368.235 242.571 368.762 242.641Z" fill="#263238"/>
<path d="M311.732 294.214C311.622 294.064 311.532 293.901 311.463 293.728L310.781 292.292C310.192 291.041 309.396 289.191 308.446 286.928C306.523 282.38 304.074 276.014 301.469 268.944C298.865 261.875 296.467 255.508 294.648 250.909C293.759 248.677 293.025 246.847 292.478 245.483L291.899 244.005C291.819 243.835 291.763 243.654 291.733 243.468C291.844 243.617 291.934 243.781 292.002 243.954L292.684 245.39C293.263 246.641 294.069 248.491 295.02 250.754C296.942 255.302 299.392 261.668 301.996 268.738C304.601 275.807 306.999 282.173 308.818 286.773C309.706 289.005 310.44 290.834 310.978 292.199C311.215 292.788 311.412 293.232 311.567 293.677C311.647 293.847 311.703 294.028 311.732 294.214Z" fill="#263238"/>
<path d="M364.525 277.192C364.359 277.287 364.182 277.36 363.997 277.409L362.468 277.926L356.814 279.755C352.04 281.305 345.446 283.517 338.211 285.956C330.976 288.395 324.351 290.566 319.545 292.013C317.148 292.746 315.194 293.305 313.84 293.677L312.28 294.08C312.098 294.137 311.911 294.175 311.722 294.193C311.887 294.098 312.064 294.025 312.249 293.976L313.778 293.46L319.432 291.63C324.207 290.08 330.801 287.868 338.035 285.429C345.27 282.99 351.884 280.82 356.69 279.373C359.099 278.639 361.042 278.081 362.406 277.709L363.966 277.306C364.148 277.248 364.335 277.21 364.525 277.192Z" fill="#263238"/>
<path d="M342.986 26.4894L337.663 28.3911L335.379 21.4355C331.183 8.60942 317.809 1.79848 305.521 6.12896C293.232 10.4594 286.69 24.5257 290.886 37.3518L293.17 44.3074L287.827 46.2194C285.789 47.0097 284.135 48.5548 283.207 50.5335C282.279 52.5122 282.15 54.7724 282.845 56.8441L297.656 102.102C297.963 103.128 298.473 104.081 299.157 104.906C299.84 105.73 300.682 106.409 301.632 106.901C302.583 107.394 303.623 107.691 304.69 107.773C305.758 107.856 306.831 107.724 307.846 107.384L363.005 87.6535C365.07 86.8646 366.748 85.3058 367.687 83.3051C368.625 81.3043 368.752 79.0174 368.039 76.9255L353.218 31.6674C352.903 30.6447 352.384 29.696 351.694 28.8779C351.004 28.0598 350.156 27.3892 349.201 26.9059C348.246 26.4226 347.204 26.1367 346.136 26.0651C345.068 25.9936 343.997 26.1379 342.986 26.4894ZM300.942 33.7241C299.811 30.3891 300.014 26.7457 301.509 23.5572C303.004 20.3686 305.675 17.8823 308.962 16.6193C310.586 16.0639 312.304 15.8412 314.015 15.9644C315.727 16.0876 317.395 16.5543 318.922 17.3366C320.449 18.1189 321.803 19.2007 322.903 20.5175C324.002 21.8344 324.826 23.3592 325.323 25.0012L327.597 31.9568L303.216 40.6798L300.942 33.7241ZM331.948 73.8869L335.731 85.4418C335.8 85.6735 335.778 85.923 335.668 86.1386C335.558 86.3541 335.37 86.5191 335.142 86.5993L329.84 88.4907C329.629 88.5492 329.403 88.5238 329.21 88.4197C329.018 88.3157 328.873 88.1411 328.806 87.9326L324.992 76.4294C322.889 76.3148 320.872 75.5606 319.209 74.2676C317.547 72.9747 316.319 71.2047 315.691 69.1947C314.792 66.5375 314.956 63.6355 316.148 61.0964C317.341 58.5573 319.469 56.578 322.088 55.5729C323.381 55.1311 324.75 54.9541 326.113 55.0526C327.476 55.151 328.805 55.5228 330.021 56.1458C331.237 56.7689 332.316 57.6304 333.192 58.679C334.068 59.7276 334.724 60.9419 335.121 62.2494C335.786 64.2912 335.841 66.4826 335.279 68.5552C334.717 70.6277 333.563 72.4914 331.958 73.918L331.948 73.8869Z" fill="#4CAF4F"/>
<path d="M337.426 28.2669C337.426 28.4116 327.555 32.1219 315.277 36.5351C302.999 40.9482 292.984 44.4932 292.932 44.3899C292.881 44.2865 302.803 40.5452 315.091 36.1217C327.38 31.6982 337.374 28.1325 337.426 28.2669Z" fill="#263238"/>
<path d="M349.146 30.1689C349.192 30.2586 349.23 30.352 349.26 30.448C349.342 30.6547 349.435 30.9234 349.559 31.2541C349.828 32.0086 350.2 33.0525 350.665 34.3547L354.634 45.9096C356.288 50.8085 358.262 56.6169 360.453 63.0661C361.486 66.301 362.706 69.6703 363.843 73.2153C364.451 75.0421 364.714 76.9663 364.618 78.8894C364.53 79.8895 364.246 80.8625 363.781 81.7523C363.284 82.6391 362.621 83.4216 361.827 84.057C360.231 85.2226 358.458 86.1262 356.577 86.7338L351.254 88.6459L341.178 92.2529L324.114 98.33L312.59 102.381L309.49 103.415L308.663 103.684C308.574 103.723 308.48 103.747 308.384 103.756C308.384 103.756 308.466 103.756 308.642 103.632L309.448 103.312L312.549 102.144L324.011 97.9269L341.043 91.7258L351.099 88.0878L356.422 86.1654C358.25 85.5825 359.971 84.7063 361.517 83.5713C362.256 82.9817 362.873 82.2553 363.336 81.4319C363.774 80.6089 364.038 79.7048 364.112 78.7757C364.207 76.9228 363.954 75.0684 363.367 73.3083C362.251 69.7943 361.073 66.394 360.008 63.1591C357.859 56.6996 355.874 50.8705 354.303 45.9716C352.732 41.0726 351.409 37.1349 350.5 34.3651C350.066 33.0111 349.735 31.9569 349.466 31.1921L349.218 30.3653C349.187 30.3027 349.163 30.2368 349.146 30.1689Z" fill="#263238"/>
<path d="M320.042 15.9167C320.042 15.9167 319.494 15.6479 318.481 15.2345C317.037 14.6798 315.51 14.3723 313.964 14.325C311.673 14.2465 309.393 14.6771 307.288 15.5859C304.728 16.7176 302.54 18.5481 300.973 20.8673C299.396 23.1798 298.55 25.9127 298.544 28.7117C298.566 31.0059 298.914 33.2853 299.578 35.4813C300.115 37.3623 300.673 38.861 301.045 39.9048C301.265 40.435 301.445 40.9809 301.583 41.5378C301.289 41.042 301.044 40.5195 300.849 39.9772C300.425 38.9436 299.815 37.476 299.216 35.5847C298.48 33.3656 298.08 31.0491 298.027 28.7117C298 25.8069 298.866 22.9638 300.508 20.5675C302.129 18.1637 304.407 16.2766 307.071 15.1312C309.241 14.2174 311.593 13.8143 313.944 13.953C315.523 14.0335 317.075 14.4012 318.522 15.0382C318.909 15.2167 319.282 15.424 319.639 15.6583C319.786 15.7229 319.922 15.81 320.042 15.9167Z" fill="#263238"/>
<path d="M320.517 56.3581C320.682 56.2582 320.855 56.1718 321.034 56.0997C321.551 55.8663 322.087 55.6762 322.636 55.5313C323.507 55.2742 324.406 55.1215 325.313 55.0766C326.547 55.0102 327.781 55.1966 328.941 55.6243C331.586 56.5545 334.015 59.252 335.214 62.859C335.789 64.7947 335.789 66.8558 335.214 68.7915C334.577 70.8924 333.434 72.8051 331.886 74.3622L331.948 74.0831C333.323 77.8555 334.821 81.9482 336.372 86.2167L336.465 86.4751L336.206 86.5681L333.84 87.3536L328.672 89.0796L328.414 89.1623L328.331 88.9039C326.915 84.6251 325.365 80.6357 324.197 76.7186L324.424 76.8943C322.404 76.7265 320.477 75.9681 318.884 74.7136C317.443 73.6037 316.262 72.1929 315.422 70.5795C314.664 69.1487 314.287 67.5471 314.327 65.9286C314.374 64.2744 314.787 62.6512 315.536 61.1753C316.285 59.6994 317.35 58.4074 318.657 57.3917C319.195 56.9551 319.798 56.6063 320.445 56.3581C319.861 56.7045 319.295 57.0805 318.75 57.4847C317.315 58.6989 316.215 60.2611 315.556 62.0219C314.991 63.3496 314.726 64.786 314.782 66.228C314.837 67.6701 315.211 69.082 315.877 70.3624C316.703 71.9145 317.856 73.2687 319.256 74.3312C320.776 75.5236 322.613 76.2425 324.538 76.3982H324.713L324.765 76.5532C325.902 80.398 327.463 84.4184 328.899 88.7178L328.558 88.5525L333.726 86.8265L336.082 86.0307L335.917 86.3821C334.377 82.1136 332.889 78.0105 331.524 74.2381V74.0831L331.648 73.9591C333.151 72.4665 334.271 70.6336 334.914 68.6158C335.463 66.7641 335.463 64.7933 334.914 62.9417C333.788 59.469 331.462 56.8336 328.941 55.9034C327.824 55.4729 326.633 55.2726 325.437 55.3143C324.544 55.3347 323.657 55.4561 322.791 55.676C321.251 56.0584 320.528 56.4098 320.517 56.3581Z" fill="#263238"/>
<path d="M288.571 354.779L185.332 354.303C179.37 354.27 173.665 351.873 169.47 347.637C165.274 343.4 162.932 337.672 162.956 331.71L164.052 72.905C164.064 69.9513 164.658 67.0289 165.8 64.3049C166.943 61.5809 168.611 59.1087 170.709 57.0297C172.807 54.9507 175.294 53.3055 178.029 52.1884C180.763 51.0712 183.691 50.5039 186.645 50.5188L289.873 50.9943C295.835 51.0243 301.542 53.4195 305.739 57.6537C309.936 61.8878 312.281 67.6148 312.259 73.5768L311.164 332.372C311.152 335.327 310.558 338.25 309.416 340.975C308.274 343.7 306.606 346.174 304.508 348.254C302.41 350.335 299.923 351.982 297.189 353.102C294.454 354.221 291.526 354.791 288.571 354.779Z" fill="#455A64"/>
<path d="M289.718 59.8932H269.709C269.056 59.9053 268.412 60.0459 267.814 60.307C267.215 60.568 266.674 60.9445 266.221 61.4148C265.768 61.885 265.412 62.44 265.174 63.0478C264.935 63.6557 264.819 64.3046 264.831 64.9575V68.5851C264.843 69.2375 264.727 69.8859 264.488 70.4932C264.25 71.1004 263.894 71.6547 263.44 72.1241C262.987 72.5936 262.446 72.9691 261.847 73.229C261.249 73.489 260.605 73.6283 259.953 73.6391L220.947 73.4634C219.628 73.4282 218.376 72.8708 217.468 71.9135C216.559 70.9562 216.067 69.6773 216.1 68.3578V64.7301C216.134 63.4123 215.643 62.1349 214.737 61.1779C213.83 60.2209 212.581 59.6623 211.263 59.6245H204.225L186.707 59.5418C182.54 59.517 178.533 61.1443 175.564 64.0673C172.594 66.9904 170.904 70.971 170.863 75.1377L169.829 327.752C169.82 329.819 170.217 331.868 171 333.781C171.782 335.695 172.933 337.435 174.388 338.904C175.843 340.372 177.573 341.54 179.479 342.339C181.385 343.139 183.43 343.556 185.498 343.565L288.519 344.041C290.588 344.05 292.638 343.652 294.553 342.869C296.467 342.087 298.209 340.934 299.678 339.478C301.148 338.023 302.316 336.292 303.116 334.384C303.916 332.477 304.333 330.431 304.343 328.362L305.376 75.7475C305.401 71.5691 303.766 67.5519 300.829 64.5789C297.893 61.6059 293.897 59.9205 289.718 59.8932Z" fill="white"/>
<path d="M275.859 310.337L199.254 310.006C198.458 310.006 197.817 309.138 197.827 308.084L197.91 288.044C197.91 287.01 198.561 286.122 199.357 286.122L275.962 286.473C276.403 286.549 276.797 286.793 277.063 287.153C277.329 287.513 277.445 287.962 277.388 288.406L277.316 308.425C277.316 309.49 276.654 310.347 275.859 310.337Z" fill="#4CAF4F"/>
<path d="M222.545 300.124C222.122 300.124 221.715 300.057 221.325 299.921C220.94 299.78 220.642 299.601 220.431 299.385L220.666 298.921C220.867 299.116 221.135 299.282 221.471 299.417C221.813 299.547 222.171 299.612 222.545 299.612C222.902 299.612 223.192 299.569 223.415 299.482C223.642 299.39 223.808 299.268 223.911 299.116C224.019 298.964 224.073 298.796 224.073 298.612C224.073 298.39 224.008 298.211 223.878 298.075C223.753 297.94 223.588 297.834 223.382 297.758C223.176 297.677 222.948 297.606 222.699 297.547C222.45 297.487 222.2 297.425 221.951 297.36C221.702 297.289 221.471 297.197 221.26 297.083C221.054 296.97 220.886 296.82 220.756 296.636C220.631 296.446 220.569 296.2 220.569 295.896C220.569 295.614 220.642 295.357 220.788 295.124C220.94 294.885 221.17 294.695 221.479 294.555C221.788 294.408 222.184 294.335 222.667 294.335C222.986 294.335 223.304 294.381 223.618 294.473C223.932 294.56 224.203 294.682 224.431 294.839L224.228 295.319C223.984 295.156 223.724 295.037 223.447 294.961C223.176 294.885 222.913 294.847 222.658 294.847C222.317 294.847 222.035 294.893 221.813 294.985C221.591 295.078 221.425 295.202 221.317 295.36C221.214 295.511 221.162 295.685 221.162 295.88C221.162 296.102 221.225 296.281 221.349 296.417C221.479 296.552 221.647 296.658 221.853 296.734C222.065 296.81 222.295 296.877 222.545 296.937C222.794 296.997 223.041 297.062 223.285 297.132C223.534 297.203 223.762 297.295 223.968 297.409C224.179 297.517 224.347 297.663 224.472 297.848C224.602 298.032 224.667 298.273 224.667 298.571C224.667 298.848 224.591 299.105 224.439 299.344C224.287 299.577 224.054 299.767 223.74 299.913C223.431 300.054 223.033 300.124 222.545 300.124ZM225.978 300.076V294.384H226.58V300.076H225.978ZM228.432 300.076V294.384H228.928L232.855 299.328H232.595V294.384H233.188V300.076H232.692L228.773 295.132H229.033V300.076H228.432ZM237.543 300.124C237.109 300.124 236.708 300.054 236.339 299.913C235.976 299.767 235.659 299.563 235.388 299.303C235.122 299.043 234.913 298.737 234.762 298.384C234.615 298.032 234.542 297.647 234.542 297.23C234.542 296.812 234.615 296.427 234.762 296.075C234.913 295.723 235.125 295.416 235.396 295.156C235.667 294.896 235.984 294.695 236.347 294.555C236.716 294.408 237.117 294.335 237.551 294.335C237.984 294.335 238.38 294.403 238.738 294.538C239.101 294.674 239.41 294.88 239.665 295.156L239.291 295.538C239.052 295.3 238.789 295.129 238.502 295.026C238.215 294.923 237.906 294.872 237.575 294.872C237.223 294.872 236.897 294.931 236.599 295.051C236.307 295.164 236.049 295.33 235.827 295.547C235.61 295.758 235.439 296.007 235.315 296.295C235.195 296.577 235.136 296.888 235.136 297.23C235.136 297.566 235.195 297.878 235.315 298.165C235.439 298.452 235.61 298.704 235.827 298.921C236.049 299.132 236.307 299.298 236.599 299.417C236.897 299.531 237.22 299.588 237.567 299.588C237.892 299.588 238.198 299.539 238.486 299.441C238.779 299.344 239.047 299.179 239.291 298.945L239.632 299.401C239.361 299.639 239.044 299.821 238.681 299.946C238.318 300.065 237.938 300.124 237.543 300.124ZM239.055 299.328V297.23H239.632V299.401L239.055 299.328ZM245.756 300.124C245.03 300.124 244.458 299.916 244.041 299.498C243.623 299.081 243.415 298.463 243.415 297.644V294.384H244.016V297.62C244.016 298.292 244.168 298.788 244.472 299.108C244.775 299.428 245.203 299.588 245.756 299.588C246.315 299.588 246.746 299.428 247.049 299.108C247.353 298.788 247.505 298.292 247.505 297.62V294.384H248.09V297.644C248.09 298.463 247.881 299.081 247.464 299.498C247.052 299.916 246.483 300.124 245.756 300.124ZM249.903 300.076V294.384H252.034C252.516 294.384 252.931 294.462 253.278 294.62C253.625 294.771 253.89 294.994 254.075 295.286C254.264 295.574 254.359 295.923 254.359 296.335C254.359 296.736 254.264 297.083 254.075 297.376C253.89 297.663 253.625 297.886 253.278 298.043C252.931 298.2 252.516 298.279 252.034 298.279H250.237L250.505 297.994V300.076H249.903ZM250.505 298.043L250.237 297.75H252.017C252.587 297.75 253.018 297.628 253.31 297.384C253.608 297.135 253.758 296.785 253.758 296.335C253.758 295.88 253.608 295.528 253.31 295.278C253.018 295.029 252.587 294.904 252.017 294.904H250.237L250.505 294.62V298.043Z" fill="#E8E8E3"/>
<path d="M214.534 134.152L187.952 134.031L187.93 138.909L214.512 139.03L214.534 134.152Z" fill="#4CAF4F"/>
<path opacity="0.1" d="M214.534 134.152L187.952 134.031L187.93 138.909L214.512 139.03L214.534 134.152Z" fill="black"/>
<path d="M292.457 164.103C292.666 164.082 292.871 164.034 293.067 163.959C293.353 163.847 293.602 163.657 293.785 163.41C293.968 163.163 294.077 162.87 294.101 162.563C294.101 160.92 294.101 158.522 294.101 155.443C294.101 153.903 294.101 152.177 294.101 150.275C294.101 149.81 294.101 149.324 294.101 148.838C294.168 148.367 294.065 147.887 293.811 147.484C293.669 147.291 293.484 147.134 293.27 147.024C293.057 146.915 292.821 146.857 292.581 146.854H290.969H276.035L189.59 146.534C189.369 146.53 189.15 146.579 188.952 146.678C188.754 146.777 188.583 146.923 188.454 147.102C188.204 147.506 188.109 147.987 188.185 148.456C188.185 149.489 188.185 150.523 188.185 151.556C188.185 153.624 188.185 155.691 188.185 157.758C188.185 158.791 188.185 159.825 188.185 160.858C188.142 161.34 188.142 161.824 188.185 162.305C188.239 162.511 188.34 162.703 188.48 162.864C188.62 163.025 188.794 163.152 188.991 163.235C189.195 163.316 189.413 163.355 189.632 163.349H194.892L217.847 163.473L256.708 163.711L282.908 163.917L290.029 164H291.879C292.302 164 292.509 164 292.509 164H291.879H290.029H282.908H256.708L217.847 163.876L194.892 163.783H189.632C189.342 163.795 189.054 163.745 188.784 163.638C188.512 163.522 188.27 163.345 188.077 163.122C187.883 162.898 187.744 162.633 187.668 162.346C187.608 162.075 187.587 161.797 187.606 161.52V160.755C187.606 159.721 187.606 158.688 187.606 157.654C187.606 155.587 187.606 153.52 187.606 151.453C187.606 150.42 187.606 149.386 187.606 148.353C187.586 148.077 187.586 147.801 187.606 147.526C187.645 147.222 187.762 146.933 187.947 146.689C188.125 146.439 188.361 146.236 188.635 146.098C188.909 145.959 189.212 145.889 189.518 145.893L275.962 146.368L290.897 146.471H292.509C292.793 146.472 293.073 146.54 293.325 146.672C293.577 146.803 293.793 146.993 293.956 147.226C294.247 147.675 294.365 148.215 294.287 148.745C294.287 149.231 294.287 149.717 294.287 150.182C294.287 152.063 294.287 153.789 294.287 155.349C294.287 158.45 294.214 160.827 294.194 162.481C294.168 162.799 294.053 163.103 293.861 163.357C293.668 163.612 293.407 163.806 293.108 163.917C292.913 164.039 292.687 164.103 292.457 164.103Z" fill="#E0E0E0"/>
<path d="M244.553 151.722H195.936V156.28H244.553V151.722Z" fill="#4CAF4F"/>
<path opacity="0.2" d="M244.553 151.722H195.936V156.28H244.553V151.722Z" fill="white"/>
<path d="M214.352 178.654L187.77 178.534L187.748 183.412L214.33 183.533L214.352 178.654Z" fill="#4CAF4F"/>
<path opacity="0.1" d="M214.352 178.654L187.77 178.534L187.748 183.412L214.33 183.533L214.352 178.654Z" fill="black"/>
<path d="M291.786 208.607C291.994 208.581 292.201 208.543 292.406 208.493C292.694 208.401 292.96 208.249 293.185 208.045C293.409 207.842 293.588 207.593 293.708 207.315C293.871 206.898 293.934 206.448 293.894 206.002C293.894 205.506 293.894 204.969 293.894 204.369C293.894 203.17 293.894 201.806 293.894 200.235V193.672C293.943 193.197 293.838 192.719 293.594 192.308C293.339 191.887 292.938 191.574 292.468 191.43C291.953 191.338 291.429 191.31 290.907 191.347H276.035L189.89 191.027C189.427 191.028 188.98 191.197 188.632 191.503C188.284 191.809 188.059 192.231 187.999 192.691C187.999 193.672 187.999 194.758 187.999 195.791C187.999 197.858 187.999 199.925 187.999 201.992C187.999 203.026 187.999 204.059 187.999 205.093C187.96 205.576 187.981 206.062 188.061 206.54C188.19 206.959 188.455 207.323 188.815 207.573C189.197 207.816 189.646 207.931 190.097 207.904H191.533H194.52L217.392 208.018L256.119 208.255L282.225 208.462L289.326 208.545H282.225H256.119L217.372 208.503L194.5 208.421H190.004C189.445 208.454 188.89 208.305 188.423 207.997C187.952 207.671 187.609 207.193 187.451 206.643C187.358 206.118 187.331 205.583 187.368 205.051C187.368 204.018 187.368 202.984 187.368 201.951C187.368 199.884 187.368 197.817 187.368 195.75C187.368 194.716 187.368 193.683 187.368 192.649C187.444 192.058 187.732 191.515 188.179 191.121C188.626 190.727 189.201 190.51 189.797 190.51L275.942 190.985L290.814 191.099C291.368 191.065 291.924 191.103 292.468 191.213C293.005 191.388 293.458 191.756 293.739 192.246C294.006 192.701 294.122 193.23 294.07 193.755C294.07 194.241 294.07 194.716 294.07 195.192C294.07 197.062 294.07 198.778 294.07 200.359C294.07 201.941 294.07 203.274 294.07 204.493C294.07 205.082 294.07 205.63 294.07 206.137C294.107 206.599 294.033 207.063 293.853 207.491C293.718 207.776 293.524 208.029 293.284 208.232C293.043 208.435 292.761 208.584 292.457 208.669C292.231 208.687 292.004 208.666 291.786 208.607Z" fill="#E0E0E0"/>
<path d="M214.152 225.089L187.57 224.969L187.548 229.847L214.13 229.968L214.152 225.089Z" fill="#4CAF4F"/>
<path opacity="0.1" d="M214.152 225.089L187.57 224.969L187.548 229.847L214.13 229.968L214.152 225.089Z" fill="black"/>
<path d="M291.579 255.023C291.788 254.998 291.995 254.96 292.199 254.909C292.486 254.818 292.751 254.667 292.975 254.465C293.2 254.264 293.379 254.017 293.501 253.741C293.663 253.324 293.727 252.875 293.687 252.429C293.687 251.922 293.687 251.395 293.687 250.785C293.687 249.597 293.687 248.222 293.687 246.651V240.088C293.736 239.613 293.631 239.135 293.387 238.724C293.126 238.311 292.727 238.003 292.261 237.856C291.747 237.761 291.222 237.729 290.7 237.763H275.828L189.683 237.443C189.22 237.444 188.773 237.613 188.425 237.919C188.077 238.225 187.852 238.647 187.792 239.107C187.792 240.14 187.792 241.174 187.792 242.207C187.792 244.274 187.792 246.341 187.792 248.408C187.792 249.442 187.792 250.475 187.792 251.509C187.754 251.989 187.774 252.471 187.854 252.946C187.978 253.367 188.245 253.733 188.609 253.979C188.988 254.227 189.438 254.343 189.89 254.31H194.386L217.258 254.434L255.984 254.672L282.091 254.878L289.191 254.961H282.091H255.984L217.258 254.847L194.386 254.754H189.89C189.331 254.792 188.774 254.643 188.309 254.33C187.839 254.005 187.495 253.526 187.337 252.977C187.245 252.451 187.217 251.917 187.255 251.385C187.255 250.351 187.255 249.318 187.255 248.284C187.255 246.217 187.255 244.15 187.255 242.083C187.255 241.05 187.255 240.016 187.255 238.931C187.328 238.341 187.614 237.798 188.059 237.404C188.504 237.01 189.078 236.792 189.673 236.792L275.817 237.267L290.69 237.381C291.244 237.347 291.8 237.385 292.344 237.494C292.881 237.67 293.333 238.038 293.615 238.528C293.882 238.983 293.998 239.511 293.946 240.037C293.946 240.523 293.946 241.008 293.946 241.473C293.946 243.344 293.946 245.06 293.946 246.641C293.946 248.222 293.946 249.556 293.946 250.775C293.946 251.364 293.946 251.912 293.946 252.418C293.985 252.881 293.911 253.346 293.728 253.772C293.594 254.058 293.4 254.31 293.159 254.514C292.919 254.717 292.637 254.866 292.333 254.951C292.091 255.034 291.832 255.058 291.579 255.023Z" fill="#E0E0E0"/>
<path d="M243.516 197.514L194.899 197.293L194.878 201.851L243.495 202.072L243.516 197.514Z" fill="#4CAF4F"/>
<path opacity="0.2" d="M243.516 197.514L194.899 197.293L194.878 201.851L243.495 202.072L243.516 197.514Z" fill="white"/>
<path d="M199.295 246.589C199.264 247.005 199.113 247.402 198.858 247.733C198.604 248.063 198.258 248.311 197.864 248.447C197.47 248.582 197.044 248.599 196.641 248.495C196.237 248.391 195.873 248.171 195.593 247.862C195.313 247.553 195.13 247.168 195.067 246.756C195.004 246.344 195.063 245.923 195.237 245.544C195.411 245.165 195.693 244.846 196.046 244.626C196.4 244.405 196.811 244.294 197.228 244.305C197.804 244.337 198.344 244.595 198.731 245.022C199.117 245.45 199.32 246.013 199.295 246.589Z" fill="#4CAF4F"/>
<path d="M205.878 246.62C205.899 246.911 205.859 247.204 205.761 247.479C205.664 247.755 205.511 248.007 205.312 248.22C205.112 248.434 204.871 248.604 204.603 248.721C204.336 248.837 204.047 248.897 203.755 248.897C203.462 248.897 203.174 248.837 202.906 248.721C202.638 248.604 202.397 248.434 202.198 248.22C201.998 248.007 201.845 247.755 201.748 247.479C201.65 247.204 201.61 246.911 201.631 246.62C201.61 246.329 201.65 246.036 201.748 245.761C201.845 245.486 201.998 245.233 202.198 245.02C202.397 244.806 202.638 244.636 202.906 244.519C203.174 244.403 203.462 244.343 203.755 244.343C204.047 244.343 204.336 244.403 204.603 244.519C204.871 244.636 205.112 244.806 205.312 245.02C205.511 245.233 205.664 245.486 205.761 245.761C205.859 246.036 205.899 246.329 205.878 246.62Z" fill="#4CAF4F"/>
<path d="M212.473 246.651C212.442 247.067 212.29 247.464 212.036 247.795C211.781 248.125 211.436 248.373 211.042 248.509C210.647 248.644 210.222 248.661 209.818 248.557C209.415 248.453 209.05 248.233 208.771 247.924C208.491 247.615 208.308 247.23 208.245 246.818C208.182 246.406 208.241 245.985 208.415 245.606C208.589 245.227 208.87 244.908 209.224 244.688C209.578 244.467 209.989 244.356 210.406 244.367C210.98 244.402 211.519 244.66 211.905 245.087C212.292 245.514 212.495 246.076 212.473 246.651Z" fill="#4CAF4F"/>
<path d="M219.056 246.682C219.026 247.098 218.874 247.496 218.619 247.826C218.365 248.156 218.019 248.404 217.625 248.54C217.231 248.675 216.806 248.692 216.402 248.588C215.998 248.484 215.634 248.264 215.354 247.955C215.074 247.646 214.892 247.262 214.828 246.85C214.765 246.438 214.824 246.016 214.998 245.637C215.172 245.259 215.454 244.939 215.808 244.719C216.162 244.499 216.572 244.387 216.989 244.398C217.564 244.433 218.102 244.691 218.489 245.118C218.875 245.545 219.079 246.107 219.056 246.682Z" fill="#4CAF4F"/>
<path d="M225.64 246.703C225.611 247.119 225.461 247.518 225.208 247.85C224.955 248.181 224.609 248.431 224.215 248.568C223.821 248.705 223.395 248.724 222.991 248.621C222.586 248.518 222.221 248.298 221.94 247.989C221.66 247.681 221.476 247.296 221.412 246.884C221.348 246.471 221.407 246.049 221.58 245.67C221.754 245.291 222.036 244.971 222.39 244.75C222.744 244.53 223.156 244.418 223.573 244.429C224.146 244.464 224.683 244.721 225.069 245.146C225.455 245.57 225.66 246.129 225.64 246.703Z" fill="#4CAF4F"/>
<path d="M232.234 246.734C232.205 247.148 232.057 247.545 231.806 247.876C231.555 248.206 231.213 248.457 230.822 248.595C230.43 248.734 230.007 248.756 229.604 248.657C229.201 248.559 228.835 248.344 228.552 248.04C228.269 247.737 228.081 247.357 228.011 246.948C227.941 246.538 227.992 246.118 228.158 245.737C228.324 245.357 228.598 245.033 228.946 244.806C229.293 244.579 229.7 244.459 230.115 244.46C230.697 244.482 231.247 244.733 231.644 245.159C232.041 245.585 232.253 246.152 232.234 246.734Z" fill="#4CAF4F"/>
<path d="M238.817 246.765C238.837 247.056 238.797 247.348 238.7 247.624C238.602 247.899 238.449 248.151 238.25 248.365C238.051 248.579 237.81 248.749 237.542 248.865C237.274 248.982 236.985 249.042 236.693 249.042C236.401 249.042 236.112 248.982 235.844 248.865C235.576 248.749 235.335 248.579 235.136 248.365C234.937 248.151 234.784 247.899 234.686 247.624C234.589 247.348 234.549 247.056 234.569 246.765C234.549 246.473 234.589 246.181 234.686 245.905C234.784 245.63 234.937 245.378 235.136 245.164C235.335 244.951 235.576 244.78 235.844 244.664C236.112 244.547 236.401 244.487 236.693 244.487C236.985 244.487 237.274 244.547 237.542 244.664C237.81 244.78 238.051 244.951 238.25 245.164C238.449 245.378 238.602 245.63 238.7 245.905C238.797 246.181 238.837 246.473 238.817 246.765Z" fill="#4CAF4F"/>
<path d="M245.401 246.796C245.372 247.21 245.224 247.607 244.973 247.938C244.722 248.268 244.38 248.519 243.989 248.657C243.597 248.796 243.174 248.818 242.771 248.719C242.368 248.621 242.002 248.406 241.719 248.102C241.436 247.799 241.248 247.419 241.178 247.01C241.108 246.6 241.159 246.18 241.325 245.799C241.491 245.419 241.765 245.095 242.113 244.868C242.46 244.641 242.867 244.521 243.282 244.522C243.864 244.544 244.414 244.795 244.811 245.221C245.208 245.647 245.42 246.214 245.401 246.796Z" fill="#4CAF4F"/>
<path d="M251.984 246.827C251.956 247.243 251.805 247.642 251.552 247.974C251.299 248.305 250.954 248.555 250.559 248.692C250.165 248.829 249.74 248.848 249.335 248.745C248.931 248.642 248.565 248.422 248.285 248.113C248.004 247.805 247.82 247.42 247.756 247.008C247.692 246.595 247.751 246.173 247.925 245.794C248.099 245.415 248.38 245.095 248.734 244.874C249.089 244.653 249.5 244.542 249.917 244.553C250.49 244.588 251.027 244.845 251.413 245.27C251.799 245.694 252.004 246.253 251.984 246.827Z" fill="#4CAF4F"/>
<g opacity="0.2">
<path d="M199.295 246.589C199.264 247.005 199.113 247.402 198.858 247.733C198.604 248.063 198.258 248.311 197.864 248.447C197.47 248.582 197.044 248.599 196.641 248.495C196.237 248.391 195.873 248.171 195.593 247.862C195.313 247.553 195.13 247.168 195.067 246.756C195.004 246.344 195.063 245.923 195.237 245.544C195.411 245.165 195.693 244.846 196.046 244.626C196.4 244.405 196.811 244.294 197.228 244.305C197.804 244.337 198.344 244.595 198.731 245.022C199.117 245.45 199.32 246.013 199.295 246.589Z" fill="white"/>
<path d="M205.878 246.62C205.899 246.911 205.859 247.204 205.761 247.479C205.664 247.755 205.511 248.007 205.312 248.22C205.112 248.434 204.871 248.604 204.603 248.721C204.336 248.837 204.047 248.897 203.755 248.897C203.462 248.897 203.174 248.837 202.906 248.721C202.638 248.604 202.397 248.434 202.198 248.22C201.998 248.007 201.845 247.755 201.748 247.479C201.65 247.204 201.61 246.911 201.631 246.62C201.61 246.329 201.65 246.036 201.748 245.761C201.845 245.486 201.998 245.233 202.198 245.02C202.397 244.806 202.638 244.636 202.906 244.519C203.174 244.403 203.462 244.343 203.755 244.343C204.047 244.343 204.336 244.403 204.603 244.519C204.871 244.636 205.112 244.806 205.312 245.02C205.511 245.233 205.664 245.486 205.761 245.761C205.859 246.036 205.899 246.329 205.878 246.62Z" fill="white"/>
<path d="M212.472 246.651C212.442 247.067 212.29 247.464 212.035 247.795C211.781 248.125 211.435 248.373 211.041 248.509C210.647 248.644 210.222 248.661 209.818 248.557C209.414 248.453 209.05 248.233 208.77 247.924C208.49 247.615 208.308 247.23 208.244 246.818C208.181 246.406 208.24 245.985 208.414 245.606C208.588 245.227 208.87 244.908 209.224 244.688C209.578 244.467 209.988 244.356 210.405 244.367C210.98 244.402 211.518 244.66 211.905 245.087C212.291 245.514 212.495 246.076 212.472 246.651Z" fill="white"/>
<path d="M219.056 246.682C219.026 247.098 218.874 247.496 218.619 247.826C218.365 248.156 218.019 248.404 217.625 248.54C217.231 248.675 216.806 248.692 216.402 248.588C215.998 248.484 215.634 248.264 215.354 247.955C215.074 247.646 214.892 247.262 214.828 246.85C214.765 246.438 214.824 246.016 214.998 245.637C215.172 245.259 215.454 244.939 215.808 244.719C216.162 244.499 216.572 244.387 216.989 244.398C217.564 244.433 218.102 244.691 218.489 245.118C218.875 245.545 219.079 246.107 219.056 246.682Z" fill="white"/>
<path d="M225.639 246.703C225.611 247.119 225.461 247.518 225.207 247.85C224.954 248.181 224.609 248.431 224.215 248.568C223.821 248.705 223.395 248.724 222.99 248.621C222.586 248.518 222.221 248.298 221.94 247.989C221.659 247.681 221.475 247.296 221.411 246.884C221.347 246.471 221.406 246.049 221.58 245.67C221.754 245.291 222.035 244.971 222.39 244.75C222.744 244.53 223.155 244.418 223.572 244.429C224.145 244.464 224.682 244.721 225.068 245.146C225.454 245.57 225.659 246.129 225.639 246.703Z" fill="white"/>
<path d="M232.233 246.734C232.205 247.148 232.056 247.545 231.805 247.876C231.555 248.206 231.212 248.457 230.821 248.595C230.43 248.734 230.007 248.756 229.603 248.657C229.2 248.559 228.834 248.344 228.551 248.04C228.268 247.737 228.08 247.357 228.01 246.948C227.94 246.538 227.992 246.118 228.158 245.737C228.324 245.357 228.598 245.033 228.945 244.806C229.293 244.579 229.699 244.459 230.114 244.46C230.697 244.482 231.246 244.733 231.644 245.159C232.041 245.585 232.253 246.152 232.233 246.734Z" fill="white"/>
<path d="M238.817 246.765C238.837 247.056 238.797 247.348 238.7 247.624C238.602 247.899 238.449 248.151 238.25 248.365C238.051 248.579 237.81 248.749 237.542 248.865C237.274 248.982 236.985 249.042 236.693 249.042C236.401 249.042 236.112 248.982 235.844 248.865C235.576 248.749 235.335 248.579 235.136 248.365C234.937 248.151 234.784 247.899 234.686 247.624C234.589 247.348 234.549 247.056 234.569 246.765C234.549 246.473 234.589 246.181 234.686 245.905C234.784 245.63 234.937 245.378 235.136 245.164C235.335 244.951 235.576 244.78 235.844 244.664C236.112 244.547 236.401 244.487 236.693 244.487C236.985 244.487 237.274 244.547 237.542 244.664C237.81 244.78 238.051 244.951 238.25 245.164C238.449 245.378 238.602 245.63 238.7 245.905C238.797 246.181 238.837 246.473 238.817 246.765Z" fill="white"/>
<path d="M245.401 246.796C245.372 247.21 245.224 247.607 244.973 247.938C244.722 248.268 244.38 248.519 243.989 248.657C243.597 248.796 243.174 248.818 242.771 248.719C242.368 248.621 242.002 248.406 241.719 248.102C241.436 247.799 241.248 247.419 241.178 247.01C241.108 246.6 241.159 246.18 241.325 245.799C241.491 245.419 241.765 245.095 242.113 244.868C242.46 244.641 242.867 244.521 243.282 244.522C243.864 244.544 244.414 244.795 244.811 245.221C245.208 245.647 245.42 246.214 245.401 246.796Z" fill="white"/>
<path d="M251.984 246.827C251.956 247.243 251.805 247.642 251.552 247.974C251.299 248.305 250.954 248.555 250.559 248.692C250.165 248.829 249.74 248.848 249.335 248.745C248.931 248.642 248.565 248.422 248.285 248.113C248.004 247.805 247.82 247.42 247.756 247.008C247.692 246.595 247.751 246.173 247.925 245.794C248.099 245.415 248.38 245.095 248.734 244.874C249.089 244.653 249.5 244.542 249.917 244.553C250.49 244.588 251.027 244.845 251.413 245.27C251.799 245.694 252.004 246.253 251.984 246.827Z" fill="white"/>
</g>
<path d="M242.631 97.627C243.349 97.3109 243.958 96.7905 244.382 96.1308C244.807 95.4711 245.028 94.7011 245.018 93.9167C245.045 93.4067 244.968 92.8967 244.791 92.4176C244.614 91.9385 244.342 91.5004 243.99 91.13C243.639 90.7596 243.216 90.4646 242.746 90.2631C242.277 90.0615 241.772 89.9575 241.261 89.9575C240.751 89.9575 240.245 90.0615 239.776 90.2631C239.307 90.4646 238.884 90.7596 238.532 91.13C238.181 91.5004 237.908 91.9385 237.732 92.4176C237.555 92.8967 237.478 93.4067 237.504 93.9167C237.489 94.709 237.708 95.4882 238.135 96.1559C238.562 96.8236 239.177 97.3499 239.902 97.6684C234.114 98.5365 234.373 104.82 234.373 104.82L248.057 104.882C248.057 104.882 248.377 98.4849 242.631 97.627Z" fill="#4CAF4F"/>
<path opacity="0.1" d="M242.631 97.627C243.349 97.3109 243.958 96.7905 244.382 96.1308C244.807 95.4711 245.028 94.7011 245.018 93.9167C245.045 93.4067 244.968 92.8967 244.791 92.4176C244.614 91.9385 244.342 91.5004 243.99 91.13C243.639 90.7596 243.216 90.4646 242.746 90.2631C242.277 90.0615 241.772 89.9575 241.261 89.9575C240.751 89.9575 240.245 90.0615 239.776 90.2631C239.307 90.4646 238.884 90.7596 238.532 91.13C238.181 91.5004 237.908 91.9385 237.732 92.4176C237.555 92.8967 237.478 93.4067 237.504 93.9167C237.489 94.709 237.708 95.4882 238.135 96.1559C238.562 96.8236 239.177 97.3499 239.902 97.6684C234.114 98.5365 234.373 104.82 234.373 104.82L248.057 104.882C248.057 104.882 248.377 98.4849 242.631 97.627Z" fill="black"/>
<path d="M264.867 108.935L216.095 108.714L216.069 114.543L264.84 114.764L264.867 108.935Z" fill="#4CAF4F"/>
<path opacity="0.2" d="M264.867 108.935L216.095 108.714L216.069 114.543L264.84 114.764L264.867 108.935Z" fill="white"/>
<path d="M85.5656 139.144H85.0799L83.6743 139.247C82.9136 139.293 82.1572 139.393 81.4108 139.547C80.9274 139.615 80.4479 139.708 79.9742 139.826L78.3723 140.27C75.6456 141.107 73.0731 142.381 70.7552 144.043C67.6927 146.265 65.1355 149.111 63.2518 152.393C62.1446 154.285 61.2635 156.301 60.6266 158.398C59.9574 160.678 59.5721 163.031 59.4794 165.406C59.4178 166.653 59.4385 167.903 59.5414 169.147C59.5414 169.777 59.7171 170.408 59.7998 171.049C59.8693 171.695 59.9903 172.334 60.1615 172.961C61.0909 177.108 62.9766 180.981 65.6683 184.27C68.3599 187.559 71.783 190.174 75.6644 191.905C78.4737 193.117 81.4847 193.794 84.5424 193.9C87.7006 194.074 90.8619 193.62 93.8442 192.567L94.7537 192.226H94.8777L94.981 192.288L108.014 198.902L107.631 199.233C106.236 194.913 104.893 190.727 103.59 186.707V186.551L103.704 186.438C106.866 183.253 109.213 179.354 110.546 175.069C111.754 171.152 112.106 167.021 111.579 162.956C111.111 159.343 109.949 155.855 108.159 152.683C106.615 149.958 104.623 147.512 102.267 145.448C100.324 143.815 98.1726 142.445 95.8699 141.376C94.1275 140.625 92.3128 140.053 90.4542 139.671L88.3871 139.33L86.8885 139.216L85.979 139.154H85.669C85.772 139.143 85.876 139.143 85.979 139.154H86.8989L88.3975 139.216L90.4645 139.516C92.3463 139.87 94.1857 140.421 95.9526 141.159C98.2949 142.216 100.485 143.582 102.464 145.221C104.863 147.275 106.897 149.722 108.479 152.455C110.321 155.662 111.518 159.197 112.003 162.863C112.574 166.991 112.246 171.193 111.042 175.183C109.7 179.556 107.317 183.539 104.097 186.789L104.159 186.52C105.461 190.541 106.815 194.727 108.221 199.037L108.417 199.667L107.828 199.367L94.795 192.763H95.0224L94.0922 193.104C91.0525 194.174 87.8327 194.637 84.6148 194.468C81.4911 194.349 78.4171 193.648 75.5507 192.401C70.0831 190.06 65.534 185.99 62.6007 180.815C61.2508 178.426 60.265 175.848 59.6758 173.167C59.5144 172.524 59.3936 171.872 59.314 171.214C59.2314 170.563 59.097 169.922 59.066 169.281C58.7863 165.604 59.175 161.906 60.2132 158.367C60.8659 156.241 61.7716 154.201 62.9107 152.29C64.8394 148.978 67.4499 146.114 70.5691 143.888C72.9252 142.221 75.541 140.957 78.3103 140.146L79.9329 139.733C80.4105 139.622 80.8934 139.536 81.3798 139.474C82.1339 139.335 82.8974 139.252 83.6639 139.226L85.0799 139.175C85.2408 139.153 85.4032 139.143 85.5656 139.144Z" fill="#4CAF4F"/>
<path d="M91.4569 163.246H89.5449L85.4108 157.437V153.623C85.4108 153.623 82.4549 153.437 82.8063 158.429C83.1577 163.421 82.8063 162.15 82.8063 162.15C82.8063 162.15 76.5328 162.15 76.016 162.718C75.4993 163.287 75.4683 169.343 75.3959 172.723C75.3563 173.538 75.5901 174.342 76.0601 175.009C76.5301 175.676 77.2094 176.166 77.9901 176.402C78.2089 176.463 78.4348 176.494 78.6619 176.495C80.2328 176.495 88.222 175.224 88.222 175.224H91.5189L91.4569 163.246Z" fill="#4CAF4F"/>
<path d="M96.9241 162.222L95.7459 175.286H92.48V162.491L96.9241 162.222Z" fill="#4CAF4F"/>
<path d="M135.878 428.18V419.343L120.034 419.229L119.899 432.593L120.881 432.665C125.253 432.944 143.123 433.358 146.058 432.448C149.324 431.435 135.878 428.18 135.878 428.18Z" fill="#4CAF4F"/>
<path d="M146.43 431.621C146.43 431.766 140.498 431.89 133.191 431.89C125.884 431.89 119.951 431.766 119.951 431.621C119.951 431.477 125.884 431.353 133.191 431.353C140.498 431.353 146.43 431.477 146.43 431.621Z" fill="#263238"/>
<path d="M136.157 429.988C136.022 429.916 136.157 429.451 136.477 428.955C136.798 428.459 137.232 428.252 137.335 428.356C137.438 428.459 137.221 428.852 136.911 429.275C136.601 429.699 136.291 430.061 136.157 429.988Z" fill="#263238"/>
<path d="M137.169 430.567C137.025 430.567 137.097 429.988 137.407 429.44C137.717 428.892 138.13 428.562 138.244 428.644C138.358 428.727 138.172 429.192 137.882 429.678C137.593 430.164 137.304 430.618 137.169 430.567Z" fill="#263238"/>
<path d="M124.726 431.58C124.664 431.58 124.426 431.394 124.085 431.001C123.669 430.496 123.205 430.032 122.7 429.616C122.203 429.22 121.612 428.959 120.984 428.862C120.499 428.8 120.188 428.862 120.157 428.8C120.126 428.738 120.426 428.521 120.995 428.479C121.745 428.463 122.477 428.712 123.062 429.182C123.61 429.629 124.072 430.172 124.426 430.784C124.664 431.239 124.788 431.538 124.726 431.58Z" fill="#263238"/>
<path d="M136.208 428.325C136.281 428.449 136.012 428.759 135.557 428.924C135.102 429.089 134.699 429.027 134.679 428.924C134.658 428.821 134.978 428.604 135.371 428.459C135.764 428.314 136.126 428.2 136.208 428.325Z" fill="#263238"/>
<path d="M135.96 427.467C135.96 427.622 135.547 427.746 135.01 427.756C134.472 427.766 134.048 427.642 134.059 427.498C134.069 427.353 134.493 427.218 135.01 427.208C135.526 427.198 135.94 427.322 135.96 427.467Z" fill="#263238"/>
<path d="M174.893 428.18V419.343L159.049 419.229L158.915 432.459L159.897 432.531C164.269 432.81 182.149 433.358 185.074 432.448C188.34 431.435 174.893 428.18 174.893 428.18Z" fill="#4CAF4F"/>
<path d="M185.446 431.642C185.446 431.786 179.524 431.911 172.206 431.911C164.889 431.911 158.977 431.786 158.977 431.642C158.977 431.497 164.899 431.373 172.206 431.373C179.513 431.373 185.446 431.497 185.446 431.642Z" fill="#263238"/>
<path d="M175.172 429.988C175.048 429.916 175.172 429.451 175.493 428.955C175.813 428.459 176.247 428.252 176.351 428.356C176.454 428.459 176.237 428.852 175.927 429.275C175.617 429.699 175.307 430.061 175.172 429.988Z" fill="#263238"/>
<path d="M176.185 430.567C176.051 430.567 176.113 429.988 176.433 429.44C176.754 428.892 177.157 428.562 177.271 428.644C177.384 428.727 177.188 429.192 176.898 429.678C176.609 430.164 176.33 430.618 176.185 430.567Z" fill="#263238"/>
<path d="M163.741 431.58C163.679 431.58 163.452 431.394 163.1 431.001C162.684 430.496 162.22 430.032 161.716 429.616C161.219 429.22 160.628 428.959 160 428.862C159.524 428.8 159.204 428.862 159.173 428.8C159.142 428.738 159.442 428.521 160.01 428.479C160.76 428.463 161.492 428.712 162.077 429.182C162.628 429.626 163.091 430.169 163.442 430.784C163.679 431.239 163.803 431.538 163.741 431.58Z" fill="#263238"/>
<path d="M175.224 428.325C175.296 428.449 175.028 428.759 174.573 428.924C174.118 429.089 173.715 429.027 173.694 428.924C173.674 428.821 173.994 428.604 174.387 428.459C174.78 428.314 175.141 428.2 175.224 428.325Z" fill="#263238"/>
<path d="M174.997 427.467C174.997 427.622 174.583 427.746 174.046 427.756C173.508 427.766 173.095 427.642 173.105 427.498C173.116 427.353 173.529 427.218 174.046 427.208C174.562 427.198 174.997 427.322 174.997 427.467Z" fill="#263238"/>
<path d="M233.267 165.767C232.853 165.344 231.83 165.55 231.83 165.55C231.933 164.955 231.933 164.347 231.83 163.752C231.644 163.173 230.342 163.287 230.342 163.287C230.282 162.8 230.282 162.307 230.342 161.819C230.352 161.711 230.329 161.603 230.275 161.508C230.222 161.414 230.14 161.339 230.042 161.292C229.426 161.041 228.764 160.921 228.099 160.941C227.303 160.372 230.528 155.856 231.727 154.409C232.926 152.962 232.709 151.835 231.644 151.835C230.91 151.835 227.148 156.176 225.991 157.634C224.833 159.091 221.764 163.142 221.66 159.907C221.557 156.672 220.255 154.233 219.438 153.82C218.622 153.406 217.754 154.378 218.198 155.277C218.588 156.299 218.832 157.37 218.921 158.46C219.034 159.329 218.995 160.21 218.808 161.065C218.465 162.656 217.999 164.218 217.412 165.736H217.33C217.33 165.736 194.778 187.368 193.145 188.908C191.688 190.293 162.377 187.265 156.496 186.645C154.498 186.352 152.48 186.214 150.461 186.231C147.908 186.345 147.453 186.707 144.911 186.738C138.49 186.809 132.084 187.372 125.749 188.422C122.881 188.91 120.201 190.176 118.003 192.082C115.805 193.989 114.173 196.462 113.285 199.233C107.363 217.733 93.9474 261.524 91.5806 286.122C89.7922 289.365 88.1776 292.701 86.7437 296.116C85.0797 300.643 85.4828 300.798 86.0409 300.901C87.5499 301.18 89.2655 293.056 89.9063 295.02C90.5471 296.984 86.6507 304.704 88.232 304.932C90.2991 305.221 91.9424 296.663 92.1387 295.981C92.3351 295.299 93.3583 295.516 93.1723 296.157C92.8725 297.067 89.9683 306.709 91.994 307.019C93.1102 307.185 93.2343 305.149 93.2343 305.149C93.2343 305.149 95.3013 295.919 96.2418 296.105C97.1823 296.291 96.1798 301.738 95.7044 303.557C95.229 305.376 95.8904 306.296 96.8619 305.852C97.5234 305.542 99.1047 300.012 99.5388 298.214C99.9729 296.415 101.058 291.434 102.515 294.317C103.973 297.201 106.184 298.875 107.094 298.917C107.299 298.893 107.492 298.809 107.649 298.674C107.805 298.54 107.918 298.362 107.972 298.163C108.027 297.964 108.02 297.753 107.954 297.558C107.888 297.362 107.765 297.191 107.6 297.067C106.818 296.303 106.147 295.433 105.606 294.483C105.123 293.743 104.774 292.924 104.572 292.064C104.156 290.35 103.913 288.598 103.849 286.835L103.683 285.801C105.998 274.339 112.665 240.698 122.287 219.211L126.235 227.335L127.95 233.35L117.429 259.322L162.305 258.733L155.608 232.957L163.741 206.085C172.537 206.282 195.119 206.612 198.881 204.907C203.615 202.84 228.099 171.917 228.099 171.917C229.695 170.677 231.223 169.352 232.678 167.948C232.678 167.948 234.166 166.698 233.267 165.767Z" fill="#FFBE9D"/>
<path d="M115.455 240.13C116.757 235.685 123.444 213.713 123.444 213.713C123.444 213.713 126.731 231.624 125.863 233.784C125.064 235.633 124.121 237.416 123.041 239.117C115.455 250.661 116.447 256.439 116.447 256.439L162.284 255.043C162.388 248.635 158.595 233.732 157.809 231.355C157.024 228.978 159.638 221.195 159.638 221.195C159.638 221.195 164.806 215.935 164.62 213.227C164.522 210.794 164.221 208.375 163.721 205.992L191.626 207.026L190.748 188.112L150.667 184.102C149.272 188.04 136.653 186.107 136.653 186.107C123.031 186.562 122.183 189.063 116.52 193.466C110.856 197.869 101.482 235.654 101.482 235.654L115.455 240.13Z" fill="#4CAF4F"/>
<path d="M142.554 235.654C141.76 235.796 140.951 235.838 140.146 235.778C138.647 235.778 136.59 235.675 134.327 235.447C132.064 235.22 130.017 234.9 128.56 234.61C127.756 234.507 126.969 234.305 126.214 234.011C127.022 234.011 127.828 234.087 128.622 234.238C130.09 234.424 132.126 234.683 134.379 234.91C136.632 235.137 138.678 235.292 140.156 235.396C140.962 235.406 141.765 235.492 142.554 235.654Z" fill="#263238"/>
<path d="M145.696 231.758C144.901 232.147 144.061 232.435 143.195 232.616C139.071 233.699 134.817 234.204 130.555 234.114C129.673 234.143 128.791 234.06 127.93 233.866C128.8 233.756 129.678 233.711 130.555 233.732C132.177 233.68 134.41 233.566 136.87 233.277C139.329 232.988 141.521 232.574 143.071 232.244C143.932 232.014 144.81 231.851 145.696 231.758Z" fill="#263238"/>
<path d="M161.116 214.374C161.095 215.162 160.988 215.945 160.796 216.71C160.527 218.146 160.114 220.11 159.586 222.26C159.059 224.41 158.553 226.394 158.098 227.738C157.915 228.507 157.645 229.252 157.292 229.96C157.35 229.174 157.495 228.398 157.726 227.645C158.119 226.032 158.563 224.172 159.059 222.136C159.555 220.1 160.031 218.239 160.424 216.627C160.563 215.851 160.796 215.095 161.116 214.374Z" fill="#263238"/>
<path d="M115.941 237.494C113.55 237.125 111.19 236.575 108.882 235.851C106.523 235.299 104.208 234.574 101.957 233.68C104.347 234.055 106.706 234.605 109.016 235.323C111.375 235.873 113.69 236.599 115.941 237.494Z" fill="#263238"/>
<path d="M164.217 205.765C163.827 205.832 163.429 205.832 163.039 205.765C161.959 205.654 160.899 205.4 159.886 205.01C158.196 204.375 156.657 203.393 155.368 202.127C154.079 200.862 153.07 199.341 152.404 197.662C151.668 195.815 151.353 193.827 151.484 191.843C151.53 190.207 152.019 188.614 152.9 187.234C153.519 186.304 154.444 185.62 155.515 185.301C155.801 185.222 156.096 185.184 156.393 185.187C156.6 185.187 156.703 185.187 156.703 185.187C156.703 185.187 156.269 185.187 155.577 185.466C154.595 185.829 153.762 186.509 153.21 187.399C151.804 189.611 151.411 193.652 152.91 197.424C153.608 199.203 154.7 200.8 156.104 202.096C157.254 203.156 158.579 204.009 160.021 204.618C161.373 205.152 162.78 205.537 164.217 205.765Z" fill="#263238"/>
<path d="M188.309 206.653C188.05 203.484 187.967 200.303 188.061 197.124C187.98 193.948 188.076 190.771 188.35 187.605C188.609 190.771 188.691 193.949 188.598 197.124C188.685 200.304 188.588 203.485 188.309 206.653Z" fill="#263238"/>
<path d="M150.399 185.26C150.512 182.955 150.75 180.35 150.75 180.35C150.75 180.35 156.455 179.72 156.796 173.829C157.137 167.938 156.796 154.347 156.796 154.347L146.461 149.055L134.989 158.078L136.756 187.533L147.277 188.205C148.082 188.227 148.862 187.93 149.447 187.378C150.032 186.825 150.374 186.064 150.399 185.26Z" fill="#FFBE9D"/>
<path d="M151.422 169.167C151.422 169.167 151.422 169.281 151.329 169.415C151.252 169.513 151.152 169.59 151.039 169.641C150.925 169.691 150.801 169.713 150.678 169.705C150.016 169.705 149.375 168.94 149.148 168.051C149.04 167.62 149.04 167.169 149.148 166.739C149.169 166.55 149.237 166.371 149.345 166.215C149.454 166.06 149.599 165.935 149.768 165.85C149.907 165.792 150.063 165.792 150.202 165.85C150.305 165.901 150.389 165.984 150.44 166.087C150.512 166.263 150.44 166.377 150.44 166.366C150.44 166.356 150.44 166.263 150.336 166.16C150.282 166.086 150.203 166.034 150.113 166.015C150.024 165.996 149.93 166.011 149.851 166.056C149.724 166.133 149.619 166.241 149.545 166.369C149.47 166.497 149.43 166.642 149.427 166.79C149.34 167.175 149.34 167.574 149.427 167.958C149.634 168.764 150.192 169.415 150.688 169.477C150.785 169.491 150.884 169.484 150.978 169.457C151.072 169.43 151.16 169.384 151.236 169.322C151.36 169.24 151.401 169.157 151.422 169.167Z" fill="#EB996E"/>
<path d="M160.341 151.163C159.545 148.456 156.662 147.112 154.036 146.368C150.037 145.231 145.717 144.735 141.81 146.172C137.903 147.608 133.211 150.13 133.211 154.44C130.906 154.254 129.583 156.269 128.674 158.77C128.092 160.294 127.744 161.897 127.64 163.524C127.351 169.168 125.77 176.96 122.111 181.094C120.044 183.399 117.181 184.991 116.003 187.864C114.969 190.355 115.507 193.311 114.545 195.833C113.688 198.055 111.796 199.636 110.411 201.569C109 203.761 108.17 206.276 107.998 208.878C107.826 211.48 108.319 214.082 109.429 216.441C110.548 218.74 112.123 220.786 114.058 222.456C115.993 224.127 118.247 225.385 120.685 226.156C125.512 227.625 130.66 227.675 135.516 226.301C139.16 225.43 142.559 223.744 145.458 221.371C148.425 218.948 150.462 215.574 151.225 211.821C151.959 207.604 150.781 203.315 149.902 199.119C147.153 185.859 147.939 185.167 151.411 172.857C151.494 172.64 151.535 172.413 151.597 172.196C151.659 171.979 151.69 171.875 151.732 171.71C151.83 171.223 151.882 170.729 151.887 170.232C151.38 170.421 150.829 170.461 150.3 170.347C149.771 170.234 149.285 169.971 148.9 169.591C148.514 169.186 148.245 168.684 148.121 168.138C147.997 167.592 148.023 167.023 148.197 166.491C148.441 165.909 148.804 165.384 149.264 164.952C149.723 164.519 150.268 164.188 150.864 163.979C152.011 163.504 153.241 163.256 154.367 162.729C156.755 161.592 158.408 159.235 159.535 156.765C160.461 155.053 160.747 153.067 160.341 151.163Z" fill="#263238"/>
<path d="M151.835 169.447C152.053 169.769 152.234 170.116 152.373 170.48C152.683 171.131 153.096 172.051 153.551 173.116L153.633 173.312H153.416L152.383 173.405C151.67 173.405 151.07 173.54 150.367 173.529C150.306 173.515 150.25 173.486 150.203 173.445C150.156 173.403 150.12 173.351 150.099 173.291C150.068 173.197 150.068 173.096 150.099 173.002C150.123 172.863 150.154 172.725 150.192 172.589L150.378 171.855C150.471 171.365 150.617 170.887 150.812 170.429C150.793 170.928 150.72 171.423 150.595 171.907L150.45 172.64C150.398 172.888 150.305 173.271 150.45 173.24C150.967 173.24 151.701 173.126 152.383 173.085L153.416 172.992L153.282 173.219C152.838 172.186 152.466 171.214 152.249 170.542C152.058 170.199 151.919 169.83 151.835 169.447Z" fill="#4CAF4F"/>
<path d="M116.447 256.439L162.284 255.043L182.231 332.909L178.562 422.227H154.326L157.292 334.811L139.567 280.603L142.296 425.689L117.801 426.051L115.228 289.677C115.114 285.884 113.874 277.337 114.339 273.575L116.447 256.439Z" fill="#263238"/>
<path d="M145.665 281.708C144.915 281.755 144.162 281.71 143.422 281.574C142.037 281.408 140.146 281.119 138.069 280.706C135.991 280.292 134.131 279.817 132.787 279.434C132.069 279.276 131.374 279.026 130.72 278.69C130.72 278.535 134.09 279.341 138.224 280.178C142.358 281.016 145.686 281.553 145.665 281.708Z" fill="#455A64"/>
<path d="M178.314 417.327C178.314 417.472 172.826 417.596 166.057 417.596C159.287 417.596 153.789 417.472 153.789 417.327C153.789 417.183 159.277 417.059 166.057 417.059C172.836 417.059 178.314 417.172 178.314 417.327Z" fill="#455A64"/>
<path d="M142.078 421.916C142.078 422.071 136.745 422.185 130.172 422.185C123.599 422.185 118.276 422.071 118.276 421.916C118.276 421.761 123.609 421.647 130.172 421.647C136.735 421.647 142.078 421.771 142.078 421.916Z" fill="#455A64"/>
<path d="M138.916 421.544C138.772 421.544 138.131 389.846 137.48 350.748C136.829 311.65 136.446 279.931 136.58 279.931C136.715 279.931 137.376 311.619 138.017 350.738C138.658 389.857 139.071 421.544 138.916 421.544Z" fill="#455A64"/>
<path d="M175.059 417.328C175.047 417.187 175.047 417.045 175.059 416.904V415.664C175.059 414.547 175.141 412.945 175.203 410.909C175.348 406.775 175.555 400.77 175.813 393.412C176.371 378.612 177.157 358.21 178.015 335.689C178.015 335.472 178.015 335.266 178.015 335.08V335.152C172.589 313.448 167.679 293.749 164.114 279.496L159.98 262.64C159.504 260.666 159.142 259.126 158.884 258.051C158.76 257.544 158.677 257.152 158.605 256.852C158.565 256.717 158.541 256.579 158.533 256.438C158.586 256.569 158.628 256.704 158.657 256.842C158.739 257.131 158.843 257.524 158.987 258.02C159.267 259.053 159.67 260.624 160.186 262.588C161.22 266.577 162.677 272.324 164.496 279.403C168.093 293.645 173.054 313.293 178.552 335.028V335.1C178.552 335.286 178.552 335.503 178.552 335.71C177.632 358.23 176.795 378.622 176.185 393.422C175.865 400.791 175.596 406.755 175.41 410.909C175.307 412.976 175.224 414.547 175.172 415.664C175.172 416.191 175.11 416.604 175.1 416.904C175.102 417.046 175.088 417.188 175.059 417.328Z" fill="#455A64"/>
<path d="M167.152 333.261C165.411 333.833 163.618 334.231 161.798 334.449C159.566 334.832 157.664 335.1 156.806 335.142V334.935C157.086 335.018 157.23 335.069 157.23 335.111C157.23 335.152 157.055 335.111 156.765 335.111H156.145L156.765 334.925C157.571 334.687 159.473 334.294 161.705 333.891C163.496 333.503 165.32 333.292 167.152 333.261Z" fill="#455A64"/>
<path d="M166.728 336.227C165.116 336.301 163.501 336.228 161.902 336.01C160.287 335.977 158.679 335.8 157.096 335.483C160.326 335.219 163.577 335.47 166.728 336.227Z" fill="#455A64"/>
<path opacity="0.2" d="M116.251 258.082C116.794 258.779 117.478 259.354 118.258 259.769C119.038 260.184 119.896 260.43 120.778 260.49C122.624 260.709 124.491 260.674 126.328 260.387C138.162 259.074 150.698 257.865 162.284 255.043C147.288 255.881 131.444 255.602 116.447 256.439L116.292 257.72" fill="black"/>
<g opacity="0.2">
<path d="M131.702 279.217L140.156 312.021L139.567 280.602L131.702 279.217Z" fill="black"/>
</g>
</svg>
