<svg width="18" height="18" viewBox="0 0 18 18" fill="none" xmlns="http://www.w3.org/2000/svg">
<path fill-rule="evenodd" clip-rule="evenodd" d="M16.8663 0.969691C17.07 1.17342 17.139 1.47584 17.0438 1.74778L11.7938 16.7478C11.6922 17.038 11.4238 17.2369 11.1165 17.2494C10.8093 17.2619 10.5255 17.0856 10.4006 16.8046L7.51774 10.3182L1.03134 7.43538C0.750327 7.31049 0.574029 7.02671 0.586565 6.71945C0.5991 6.41219 0.797928 6.14371 1.08818 6.04213L16.0882 0.792127C16.3601 0.696948 16.6625 0.765962 16.8663 0.969691ZM8.9805 9.91612L11.003 14.4667L14.5423 4.35429L8.9805 9.91612ZM13.4817 3.29362L3.36925 6.83297L7.91984 8.85546L13.4817 3.29362Z" fill="white"/>
</svg>
